<?xml version="1.0" encoding="utf-8"?>
<!-- Generator: Adobe Illustrator 15.0.0, SVG Export Plug-In . SVG Version: 6.00 Build 0)  -->
<!DOCTYPE svg PUBLIC "-//W3C//DTD SVG 1.1//EN" "http://www.w3.org/Graphics/SVG/1.1/DTD/svg11.dtd">
<svg version="1.1" id="illustrator" xmlns="http://www.w3.org/2000/svg" xmlns:xlink="http://www.w3.org/1999/xlink" x="0px"
	 y="0px" width="211.313px" height="229.417px" viewBox="0 0 211.313 229.417" enable-background="new 0 0 211.313 229.417"
	 xml:space="preserve">
<circle fill="none" stroke="#313131" stroke-miterlimit="10" cx="105.729" cy="106.22" r="105"/>
<circle opacity="0.2" fill="#FFFFFF" cx="104.218" cy="111.908" r="71.017"/>
<path fill="#EAC4A7" stroke="#313131" stroke-linecap="round" stroke-linejoin="round" stroke-miterlimit="10" d="M39.511,138.045
	c0,0-0.519-9.313,2.856-9c2.559,0.237,4.695,2.208,1.841,6.021c-0.422,0.564,12.896,3.604,6.521,8.19"/>
<path fill="#EAC4A7" stroke="#313131" stroke-linecap="round" stroke-linejoin="round" stroke-miterlimit="10" d="M75.198,144.512
	l-5.305,18.953l-12.481-16.625c0.094-0.322,0.439-1.506,1.713-5.881c1.75-6.006-1.641-6.031-6.125-6.656
	c-2.688-0.375-4.781-3.344-4.781-3.344c-1.969,0.219-2.424,1.437-2.563,2.656c-0.269,2.36,3.719,6.094,6.031,6.281
	c-1.849,1.226-2.038,2.939-1.819,3.836l-6.806-0.773c0,0-2.085-11.546-5.104-10.792c-2.667,0.667,0.583,9.167,1.917,14.5
	s9.683,4.289,9.683,4.289h0.001c2.791,4.832,19.345,28.509,19.345,28.509s4.596,4.078,7.638-4
	c4.125-10.954,7.396-27.693,7.396-27.693S80.37,146.489,75.198,144.512z"/>
<path fill="#96EAEA" stroke="#313131" stroke-linecap="round" stroke-linejoin="round" stroke-miterlimit="10" d="M104.137,121.146
	c0,0-19.012,3.563-26.512,9.063c0,0-4.495,12.215-7.829,19.715c4.833,2.125,6.945,3.667,12.32,6c0.292-2.375,0.145-6.646-0.117-9.59
	c1.188,7.625-0.516,47.656-0.161,62.156c7.56,1.729,16.493,2.73,24.578,2.73c8.292,0,15.454-1.156,22.125-2.485
	c-0.176-10.62-1.292-38.276-2.315-61.724c1.347,2.469,2.786,6.706,4.065,8.406c4.223-4.833,12.25-7.583,12.25-7.583
	s-5.083-12.583-16.083-20.583C118.833,124.069,111.422,121.833,104.137,121.146z"/>
<path fill="#EAC4A7" stroke="#313131" stroke-miterlimit="10" d="M97.506,112.515c0,0,2.788,1.486,2.121,9.653
	c5.164-1.334,6.102,0.869,10.892-0.274c-0.5-6.333,0.903-9.378,0.903-9.378S103.589,114.348,97.506,112.515z"/>
<path fill="#EAC4A7" stroke="#313131" stroke-linejoin="round" stroke-miterlimit="10" d="M68.458,43.333l-0.023,27.098
	c0,0-10.4-3.657-8.555,3.902c2.329,9.542,6.662,13.417,8.669,9.847c0,5,10.576,32.333,36.667,32.333
	c27.16,0,34.761-30.958,34.761-30.958s0.898,2.236,3.482,0.277c3.408-2.584,9.604-18.625,0.353-16.167
	c-2.126,0.565-4.187,1.979-4.187,1.979l-0.69-27.196C138.935,44.45,104.458,21.667,68.458,43.333z"/>
<circle fill="#313131" cx="86.206" cy="72.308" r="1.417"/>
<circle fill="#313131" cx="123.873" cy="72.308" r="1.417"/>
<path fill="#EAC4A7" stroke="#313131" stroke-linecap="round" stroke-linejoin="round" stroke-miterlimit="10" d="M65.281,74.177
	c-3.114-0.453-0.421,4.792,0.516,5.823"/>
<path fill="#EAC4A7" stroke="#313131" stroke-linecap="round" stroke-linejoin="round" stroke-miterlimit="10" d="M142.5,74.208
	c2.917-1.042,1.963,4.94,0,7.146"/>
<path fill="none" stroke="#313131" stroke-width="0.5" stroke-linecap="round" stroke-linejoin="round" stroke-miterlimit="10" d="
	M102.518,127.804"/>
<path opacity="0.3" fill="#313131" d="M99.771,116.514c0,0,0.115,5.528,0.083,5.715s2.335-0.656,5.219-0.188
	c4.289-0.168,4.271,1.221,5.302-0.333c-0.07-1.306,0-5.481,0-5.481S107.291,117.414,99.771,116.514z"/>
<path opacity="0.3" fill="#313131" d="M142.042,81.354c0,0,1.993-1.292,2.306-5.417c-0.146-0.749-0.347-2.021-1.847-1.521
	C142.75,79.125,142.042,81.354,142.042,81.354z"/>
<path opacity="0.3" fill="#313131" d="M66.25,79.865c0,0-2-0.344-2.313-4.469c0.146-0.749,0.219-1.747,1.719-1.247
	C65.406,78.857,66.25,79.865,66.25,79.865z"/>
<path fill="#E0D39B" stroke="#313131" stroke-linejoin="round" stroke-miterlimit="10" d="M130.875,41.583
	c0,0,5.882-3.241,8.75,30.063c-0.234-9.223,0.356-25.365,0-28.249C137.792,43.314,130.875,41.583,130.875,41.583z"/>
<path fill="#E0D39B" stroke="#313131" stroke-linejoin="round" stroke-miterlimit="10" d="M68.435,70.431
	c0,0,0.815-7.845,2.19-19.223c1.083-8.967,3.609-10.341,3.609-10.341s47.479-7.271,71.271,7.896
	c-2.541-5.667-8.508-10.044-10.25-11.776c6.063,3.238,10.461,4.581,14.994,8.61c-4.924-9.083-5.828-11.207-15.161-16.604
	c4.603,0.901,9.75,3.603,9.75,3.603s-4.917-7.104-13.104-11.104c-7.304-3.568-31.146-11.146-59.813,3.688
	c-3.333,2.167-7.729,5.813-6.667,15.083S68.435,70.431,68.435,70.431z"/>
<path opacity="0.3" fill="#313131" d="M80.844,67.583c0,0,3.383-3.75,7.758-1.25c1.125-1.375,1.625-2.625,1.625-2.625
	s-5.75-4.125-10.875,1.25C80.031,66.177,80.844,67.583,80.844,67.583z"/>
<path opacity="0.3" fill="#313131" d="M119.082,66.213c0,0,3.828-3.029,7.597,0.314c1.383-1.115,2.129-2.236,2.129-2.236
	s-4.782-5.216-10.9-1.007C117.995,64.615,119.082,66.213,119.082,66.213z"/>
<path fill="#E0D39B" stroke="#313131" stroke-linejoin="round" stroke-miterlimit="10" d="M81,65.771c0,0,3.125-3.75,7.5-1.25
	c1.125-1.375,1.625-2.625,1.625-2.625s-5.75-4.125-10.875,1.25C80.375,63.896,81,65.771,81,65.771z"/>
<path fill="#E0D39B" stroke="#313131" stroke-linejoin="round" stroke-miterlimit="10" d="M127.12,65.771c0,0-3.125-3.75-7.5-1.25
	c-1.125-1.375-1.625-2.625-1.625-2.625s5.75-4.125,10.875,1.25C127.745,63.896,127.12,65.771,127.12,65.771z"/>
<path fill="none" stroke="#313131" stroke-linecap="round" stroke-linejoin="round" stroke-miterlimit="10" d="M97.506,95.602
	c0,0,2.265,2.221,8.119,2.187c4.865-0.491,6.452-1.619,6.452-1.619"/>
<path fill="none" stroke="#313131" stroke-linecap="round" stroke-linejoin="round" stroke-miterlimit="10" d="M98.96,100.057
	c0,0,2.71,1.505,5.065,0.943s4.349,0.432,6.349-0.755"/>
<path fill="none" stroke="#313131" stroke-linecap="round" stroke-linejoin="round" stroke-miterlimit="10" d="M106.188,72.308
	c0,0-0.313,6.171,0.563,7.692c0.75,2.083,4.313,1.74,3.875,4.302s-4.625,6.969-9.063,1.656"/>
<polygon opacity="0.3" fill="#313131" points="97.063,123.927 102.219,128.865 105.073,125.521 107.97,128.958 111.72,124.931 
	107.384,121.146 105.073,122.235 102.518,121.146 "/>
<path opacity="0.3" fill="#313131" d="M101.563,86.365c0,0,1.162,4.156,4.55,4.156s4.763-3.75,4.95-6.125
	C110.406,85.365,106.375,91.271,101.563,86.365z"/>
<path opacity="0.3" fill="#313131" d="M99.759,100.904c0,0,0.845,3.242,5.314,2.805s5.374-1.742,5.311-3.117
	c-1.701,0.396-4.685,0.542-5.311,0.479S102.225,100.696,99.759,100.904z"/>
<path fill="#FFFFFF" stroke="#313131" stroke-linecap="round" stroke-linejoin="round" stroke-miterlimit="10" d="M82.254,153.96
	c0,0,21.3-3.749,44.273,0c0.181,4.24,0.848,21.999,0.848,21.999s-33.644-0.71-45.121,2.375
	C82.5,173.583,82.254,153.96,82.254,153.96z"/>
<path fill="#505160" stroke="#313131" stroke-linejoin="round" stroke-miterlimit="10" d="M107.086,160.583l-20.022,21.896
	c0,0-3.255,3.551,1.084,7.595c4.057,3.781,32.811,28.759,32.811,28.759s4.404,4.461,8.694-0.569s18.908-20.397,18.908-20.397
	s3.645-3.995-0.989-7.99s-31.816-29.219-31.816-29.219S111.327,156.045,107.086,160.583z"/>
<path opacity="0.3" fill="#313131" d="M115.255,191.333c0,0-1.068,3.875,6.557,5.625c0.125,0.5-0.438,7.313-4.25,10.688
	c-0.438,0.688-2.405,3.875,0.954,4.563s3.546,3.938,5.546,3.25s3.051-2.313,5.338-1.75s5.887-3.121,6.537-9
	s-0.313-9.563-0.313-9.563L115.255,191.333z"/>
<path fill="#EAC4A7" stroke="#313131" stroke-linejoin="round" stroke-miterlimit="10" d="M132.259,153.511
	c0,0,3.346,10.031,2.29,15.698c-0.771,2.629-2.763,14.821-4.257,17.958c-2.578-1.217-5.794,0.352-7.999,1.046
	c-3.071,0.967-6.869,0.604-6.869,0.604s-1.086,3.737,2.258,4.531c4.181,0.993,6.423,1.25,6.423,1.25s1.554,6.953-5.754,11.734
	c-4.203,2.75-0.185,4.553,1.982,4.083c2.125-0.834,2.258,3.503,4.542,1.667c2.283-1.836,5.045,0.25,5.833-0.863
	c0.789-1.113,7.286-5.42,5.618-14.806c1.14-6.88,7.055-27.706,7.055-27.706c0.34-2.668,0.54-6.362-3.599-19.752
	C136.247,150.765,134.134,151.911,132.259,153.511z"/>
<path fill="#505160" stroke="#313131" stroke-linejoin="round" stroke-miterlimit="10" d="M50.074,153.816l-15.65-30.629
	c0,0,0-1.583-0.112-4.855c1.767,1.011,2.704,1.854,4.204,3.011c0.644,1.412,15.643,30.802,15.643,30.802
	S52.762,154.564,50.074,153.816z"/>
<path fill="#EAC4A7" stroke="#313131" stroke-linecap="round" stroke-linejoin="round" stroke-miterlimit="10" d="M39.925,145.574
	c0,0-2.425-9.428-1.05-10.741s4,0.313,4.125,7.188"/>
<path fill="#FFFFFF" stroke="#313131" stroke-linecap="round" stroke-linejoin="round" stroke-miterlimit="10" d="M99.827,119.458
	c0,0,3.973,2.271,5.246,2.583c-0.79,1.25-3.077,6.354-3.077,6.354l-5.414-5.547C96.582,122.849,97.028,119.833,99.827,119.458z"/>
<path fill="#FFFFFF" stroke="#313131" stroke-linecap="round" stroke-linejoin="round" stroke-miterlimit="10" d="M110.507,119.458
	c0,0-3.859,2.229-5.132,2.542c0.79,1.25,2.963,6.396,2.963,6.396l5.414-5.547C113.751,122.849,113.305,119.833,110.507,119.458z"/>
<path fill="none" stroke="#313131" stroke-linecap="round" stroke-linejoin="round" stroke-miterlimit="10" d="M77.625,130.208
	c0,0,2.583,2.917,2.75,5.938"/>
<path fill="none" stroke="#313131" stroke-linecap="round" stroke-linejoin="round" stroke-miterlimit="10" d="M126.458,127.25
	c0,0,0.646,4.542-0.521,7.708"/>
<line fill="#F27768" stroke="#313131" stroke-linecap="round" stroke-linejoin="round" stroke-miterlimit="10" x1="34.312" y1="118.333" x2="33.973" y2="117.58"/>
<path fill="none" stroke="#313131" stroke-linecap="round" stroke-linejoin="round" stroke-miterlimit="10" d="M34.424,123.188
	c0,0,2.046,0.802,4.092-1.844"/>
<line fill="none" stroke="#313131" stroke-linecap="round" stroke-linejoin="round" stroke-miterlimit="10" x1="119.577" y1="164.199" x2="92.373" y2="193.859"/>
<path fill="none" stroke="#313131" stroke-linecap="round" stroke-linejoin="round" stroke-miterlimit="10" d="M100.228,172.48
	c0,0-1.353,2.228,0.481,3.603c2.127,1.595,3.833-0.208,3.833-0.208s1.814-1.646,0.273-3.458S101.561,170.812,100.228,172.48z"/>
<line fill="none" stroke="#313131" stroke-linecap="round" stroke-linejoin="round" stroke-miterlimit="10" x1="96.292" y1="178" x2="99.208" y2="180.542"/>
<line fill="none" stroke="#313131" stroke-linecap="round" stroke-linejoin="round" stroke-miterlimit="10" x1="92.373" y1="182.271" x2="95.289" y2="184.813"/>
<line fill="none" stroke="#313131" stroke-linecap="round" stroke-linejoin="round" stroke-miterlimit="10" x1="94.265" y1="179.93" x2="97.182" y2="182.472"/>
<line fill="none" stroke="#313131" stroke-linecap="round" stroke-linejoin="round" stroke-miterlimit="10" x1="109.894" y1="163.721" x2="112.811" y2="166.263"/>
<line fill="none" stroke="#313131" stroke-linecap="round" stroke-linejoin="round" stroke-miterlimit="10" x1="105.975" y1="167.993" x2="108.891" y2="170.535"/>
<line fill="none" stroke="#313131" stroke-linecap="round" stroke-linejoin="round" stroke-miterlimit="10" x1="107.867" y1="165.651" x2="110.784" y2="168.193"/>
<path opacity="0.3" fill="#313131" d="M46.5,135.5c0,0,3.542,3.084,7,3.667c-0.833,0.792-3.379,3.795-1.792,7.542
	C50.69,145.344,46.833,137.125,46.5,135.5z"/>
<path opacity="0.2" fill="#313131" d="M117.907,17.305c0,0-32.532-0.097-41.407,9.903s12.296,5.428,22.46,6.776
	s24.14,4.415,31.465,8.507c-8.245-1.735-25-5.041-43.525-2.912C84.504,39.756,74.083,40.5,74.083,40.5s-2.292,2.791-2.958,5.833
	S68.458,67.25,68.458,67.25L65.333,37c0,0-1.357-8.735,10.363-13.659S99.439,14.589,117.907,17.305z"/>
<polygon opacity="0.3" fill="#313131" points="35.458,119.34 36.221,123.123 51.989,153.542 50.208,153.542 35,123.927 
	34.625,118.875 "/>
<path fill="#EAC4A7" stroke="#313131" stroke-linecap="round" stroke-linejoin="round" stroke-miterlimit="10" d="M39.831,146.49
	c0,0,0.46-7.865,4.544-6.99s6.263,0.789,5.458,2.958s-4.375,1.5-5.167,1.167s0.083,2.865,0.083,2.865"/>
<path opacity="0.2" fill="#313131" d="M109.625,39.5c0,0,20.663,1.462,23.871,8.257c2.824,5.982,4.713,11.546,4.713,11.546
	s-2.308-14.517-5.5-15.907C129.792,42.333,114.583,39.292,109.625,39.5z"/>
<path opacity="0.3" fill="#313131" d="M68.549,84.181c0,0,9.576,30.047,36.826,29.715s34.368-27.494,34.368-27.494
	s-9.17,31.076-34.368,29.826S71.348,95.59,68.549,84.181z"/>
<path opacity="0.3" fill="#313131" d="M72.783,153.138c0,0,7.173,5.295,8.039,8.027c0.411-1.617,0.928-4.855,0.928-4.855
	l-8.606-4.46L72.783,153.138z"/>
<path opacity="0.3" fill="#313131" d="M87.505,189.416c0,0-1.786,2.189,1.714,5.605c4.096,3.998,17.198,16.199,17.198,16.199
	l5.09-0.611L87.505,189.416z"/>
<path opacity="0.3" fill="#313131" d="M140.2,150.323c0,0-5.338,3.248-7.275,5.406c-0.362-1.201-0.8-2.708-0.8-2.708l7.625-4.5
	L140.2,150.323z"/>
<path opacity="0.3" fill="#313131" d="M44.75,146.292c0,0,1.354,3.556,1.604,4.515c0.831,0.314,1.896-0.14,1.896-0.14l-3.335-6.583
	L44.75,146.292z"/>
<line fill="#EAC4A7" stroke="#313131" stroke-linecap="round" stroke-linejoin="round" stroke-miterlimit="10" x1="69.893" y1="163.464" x2="71.458" y2="165.651"/>
</svg>
