<?xml version="1.0" encoding="utf-8"?>
<!-- Generator: Adobe Illustrator 15.0.0, SVG Export Plug-In . SVG Version: 6.00 Build 0)  -->
<!DOCTYPE svg PUBLIC "-//W3C//DTD SVG 1.1//EN" "http://www.w3.org/Graphics/SVG/1.1/DTD/svg11.dtd">
<svg version="1.1" id="developer" xmlns="http://www.w3.org/2000/svg" xmlns:xlink="http://www.w3.org/1999/xlink" x="0px" y="0px"
	 width="211.313px" height="214.563px" viewBox="0 0 211.313 214.563" enable-background="new 0 0 211.313 214.563"
	 xml:space="preserve">
<circle fill="none" stroke="#313131" stroke-miterlimit="10" cx="105.625" cy="105.896" r="105"/>
<circle opacity="0.2" fill="#FFFFFF" cx="104.115" cy="111.584" r="71.017"/>
<path fill="#EFEFEF" stroke="#313131" stroke-linecap="round" stroke-linejoin="round" stroke-miterlimit="10" d="M123.873,171.116
	l33.043-18.935c0,0,5.896-3.431,8.76,1.039c2.563,4,7.387,13.281,7.387,13.281s3.177,4.822-0.938,7.875
	c-4.114,3.052-43.25,23.938-43.25,23.938L123.873,171.116z"/>
<path fill="#EFEFEF" stroke="#313131" stroke-width="0.5" stroke-linecap="round" stroke-linejoin="round" stroke-miterlimit="10" d="
	M135.023,169.237l-18.398,10.575c0,0-1.667,1.523-0.367,3.817c1.284,2.266,5.52,9.635,5.52,9.635s1.05,3.455,3.513,2.132
	c2.703-1.452,18.573-10.683,18.573-10.683s1.51-1.001,0.198-2.938s-6.356-11.337-6.356-11.337S136.821,168.28,135.023,169.237z"/>
<path fill="#F4ED98" stroke="#313131" stroke-linecap="round" stroke-linejoin="round" stroke-miterlimit="10" d="M129.69,136.033
	c-6.917-3.667-9.267-5.451-25.887-7.456c0,0-18.862,2.989-26.362,8.489c0,0-1.649,3.414,2.101,16.831
	c3.042,1.792,1.854,39.933,2.238,54.294c8.282,1.744,14.662,2.707,23.846,2.707c9.739,0,16.563-1.124,25.519-3.125
	c-0.273-10.771,0.187-19.928-2.56-50.529c0.446,0.469,4.413,8.149,4.737,8.459c5.668-3.248,9.176-5.259,9.176-5.259
	S132.773,141.616,129.69,136.033z"/>
<path opacity="0.3" fill="#313131" d="M108.25,136.771l-3.177-5.896l-2.555,5.396l1.531-1.074
	c-0.032,4.561-0.466,69.812,0.659,75.404c0.917,0.295,1.146,0,1.146,0l-0.775-76.118L108.25,136.771z"/>
<path fill="#F4ED98" stroke="#313131" stroke-linecap="round" stroke-linejoin="round" stroke-miterlimit="10" d="M105.073,130.875
	c0,0-0.067,76.038,1.069,79.727"/>
<path fill="#EAC4A7" stroke="#313131" stroke-miterlimit="10" d="M97.506,120.744c0,0,2.788,1.486,2.121,9.653
	c3.436,0.416,7.186,0.479,10.892-0.274c-0.5-6.333,0.903-9.378,0.903-9.378S103.589,122.577,97.506,120.744z"/>
<path fill="#EAC4A7" stroke="#313131" stroke-linejoin="round" stroke-miterlimit="10" d="M68.458,49.188L68.435,78.66
	c0,0-9.29-6.702-10.623,0.965S65.625,99.62,68.549,92.41c0,5,4.667,32.333,36.667,32.333s34.761-30.958,34.761-30.958
	s-0.218,4.086,5.032,1.419c5.609-2.849,10.45-18.392,2.01-18.044c-3.833,0.158-6.566,4.217-6.566,4.217l0.43-29.3
	C140.882,52.077,104.458,27.521,68.458,49.188z"/>
<circle fill="#313131" cx="86.206" cy="80.537" r="1.417"/>
<path opacity="0.3" fill="#313131" d="M76.938,79.12c0,0,6.792-3.696,16.313-2.323c2.719-2.25,0.375-4.094,0.375-4.094
	s-9.322-1.332-13.19,1.109C81.051,75.313,77.475,75.943,76.938,79.12z"/>
<path opacity="0.3" fill="#313131" d="M100.758,200.118c0,0,0.7,3.777-5.383,4.444s-13.627,2.172-13.627,2.172l-0.123-3.755
	L100.758,200.118z"/>
<circle fill="#313131" cx="123.873" cy="80.537" r="1.417"/>
<path fill="#5B4534" stroke="#313131" stroke-linecap="round" stroke-linejoin="round" stroke-miterlimit="10" d="M77.475,77.151
	c0,0,6.442-3.733,16.088-1.813c1.938-1.537,0.271-3.276,0.271-3.276s-8.51-2.788-13.271,0.563
	C81.688,73.625,78.688,74.714,77.475,77.151z"/>
<path opacity="0.3" fill="#313131" d="M131.426,79.12c0,0-6.792-3.696-16.313-2.323c-2.719-2.25-0.375-4.094-0.375-4.094
	s10.831-0.644,14.699,1.797C129.813,75.943,130.213,76.683,131.426,79.12z"/>
<path fill="#5B4534" stroke="#313131" stroke-linecap="round" stroke-linejoin="round" stroke-miterlimit="10" d="M130.889,77.151
	c0,0-6.442-3.733-16.088-1.813c-1.842-1.653-0.176-3.612-0.176-3.612s9.926-1.765,14.688,1.585
	C128.188,74.313,129.676,74.714,130.889,77.151z"/>
<path fill="#EFEFEF" stroke="#313131" stroke-linecap="round" stroke-linejoin="round" stroke-miterlimit="10" d="M41.854,171.127
	c-1.191-6.152,5.934-6.912,5.934-6.912l46.024-6.434c0,0,8.124-1.989,9.142,3.221c0.911,4.663,4.625,31.399,4.625,31.399
	s1.378,6.548-3.958,7.553c-5.034,0.947-52.167,7.62-52.167,7.62s-4.833,1.125-5.417-4.125
	C45.384,197.567,42.769,175.852,41.854,171.127z"/>
<path fill="none" stroke="#313131" stroke-linecap="round" stroke-linejoin="round" stroke-miterlimit="10" d="M98.208,90.125
	c0,0,1.185,4.405,6.031,4.794c3.555,0.285,7.308-1.598,7.698-5.473"/>
<path fill="#EAC4A7" stroke="#313131" stroke-linecap="round" stroke-linejoin="round" stroke-miterlimit="10" d="M64.695,81.512
	c-4.32-1.825-2.021,4.517-1.084,5.548"/>
<path fill="#EAC4A7" stroke="#313131" stroke-linecap="round" stroke-linejoin="round" stroke-miterlimit="10" d="M144.445,83.396
	c4.744-2.522,2.081,3.664,0.758,5.333"/>
<path fill="none" stroke="#313131" stroke-width="0.5" stroke-linecap="round" stroke-linejoin="round" stroke-miterlimit="10" d="
	M102.518,136.033"/>
<path fill="none" stroke="#313131" stroke-linecap="round" stroke-linejoin="round" stroke-miterlimit="10" d="M180.492,158.703"/>
<path opacity="0.3" fill="#313131" d="M111.937,91.271c0,0-0.812,5.958-6.397,6.229c-5.687,0.275-6.708-3.749-7.332-6.146
	C103.792,95.875,106.479,96.458,111.937,91.271z"/>
<path opacity="0.3" fill="#313131" d="M99.771,124.743c0,0,0.115,5.528,0.083,5.715s2.335-0.052,5.219,0.417
	c0.293,0.207,2.927,0.031,5.302-0.938c-0.07-1.306,0-5.481,0-5.481S107.291,125.643,99.771,124.743z"/>
<path opacity="0.3" fill="#313131" d="M139.644,93.739l-1.457,1.208c0,0-4.249,24.664-30.438,27.865
	c-2.375,0.188-4.789,0.152-7.625-0.167c-26.25-3.167-29.75-31.583-29.75-31.583l-1.917,0.854
	c3.507,19.014,11.75,28.813,29.047,31.896c12.985,2.314,21.333-1.194,24.688-3.087C131.785,116.122,137.044,107.833,139.644,93.739z
	"/>
<path fill="#5B4534" stroke="#313131" stroke-linecap="round" stroke-linejoin="round" stroke-miterlimit="10" d="M68.063,77.875
	l2.896,5.515l0.25-32.077c0,0,2.667-4.875,12.292-7.75c19.361,12.427,37,0.625,54.132,13.504c-0.25,3.75-0.007,28.371-0.007,28.371
	l2.827-4.061c0,0,1.658-15.856,1.84-26.481s-15.838-24.333-36.752-24.333S67.25,42.896,67.375,51.896S68.063,77.875,68.063,77.875z"
	/>
<path fill="#44443B" stroke="#313131" stroke-linecap="round" stroke-linejoin="round" stroke-miterlimit="10" d="M90.933,104
	c0,0,16.375,3.813,27.063-1.313c-0.188,1.563-4.589,8.335-13.641,8.21S91.558,105.813,90.933,104z"/>
<path fill="#DB6865" stroke="#313131" stroke-linecap="round" stroke-linejoin="round" stroke-miterlimit="10" d="M104.521,110.897
	c1.975,0.114,3.602-0.342,5.079-0.771c-2.475-2.61-5.674-1.503-6.397-1.048c-2.044-1.413-3.56-0.515-4.731,0.927
	C100.186,110.422,102.067,110.755,104.521,110.897z"/>
<path fill="#FFFFFF" stroke="#313131" stroke-linecap="round" stroke-linejoin="round" stroke-miterlimit="10" d="M92.972,104.4
	c0.304,0.827,1.486,1.996,4.965,2.35c2.395,0.244,9.438,0.99,15.188-0.854c0.804-0.268,1.728-0.902,2.176-2.141
	C108.646,105.941,98.875,105.459,92.972,104.4z"/>
<path fill="#EAC4A7" stroke="#313131" stroke-linejoin="round" stroke-miterlimit="10" d="M73.719,191.5c0,0,2.856,2.89,3.323,3.188
	c1.583,1.01,4.292,2.208,7.918,1.625c2,0.75,0.415,4.721-4.835,4.083c-0.156,1.167-0.156,2.167,0.528,3.002
	c0.719-0.105,1.496-0.217,2.359-0.342c0.456,2.851-5.022,4.166-5.022,4.166s-5.991,2.303-11.866,1.134
	c-1.708-0.25-2.25-2.501-2.25-2.501s-0.256-1.777-0.667-6.75c-0.406-4.926,2.167-6.667,2.167-6.667S69.204,190.352,73.719,191.5z"/>
<path fill="#EFEFEF" stroke="#313131" stroke-width="0.5" stroke-linecap="round" stroke-linejoin="round" stroke-miterlimit="10" d="
	M160.023,155.38l-5.836,3.471c0,0-2.229,0.962-0.929,3.255c1.284,2.266,6.402,11.169,6.402,11.169s0.965,2.33,3.428,1.006
	c2.703-1.452,5.776-3.426,5.776-3.426s1.51-1.001,0.198-2.938s-6.356-11.337-6.356-11.337S161.821,154.422,160.023,155.38z"/>
<path fill="#EFEFEF" stroke="#313131" stroke-width="0.5" stroke-linecap="round" stroke-linejoin="round" stroke-miterlimit="10" d="
	M147.35,162.137l-5.836,3.471c0,0-2.229,0.962-0.929,3.255c1.284,2.266,1.951,3.241,1.951,3.241s1.354,2.646,3.879,0.934
	c2.54-1.721,5.101-3.061,5.101-3.061s2.291-1.134,0.874-3.303c-1.214-1.858-2.208-3.612-2.208-3.612S149.147,161.18,147.35,162.137z
	"/>
<path fill="#EFEFEF" stroke="#313131" stroke-width="0.5" stroke-linecap="round" stroke-linejoin="round" stroke-miterlimit="10" d="
	M153.685,174.8l-4.31,2.672c0,0-1.974,0.854-0.748,2.72c0.828,1.261,1.315,1.186,3.515-0.171c2.338-1.443,3.994-2.424,3.994-2.424
	s1.393-0.76,0.591-2.158C155.792,173.809,155.208,173.989,153.685,174.8z"/>
<path fill="#EFEFEF" stroke="#313131" stroke-width="0.5" stroke-linecap="round" stroke-linejoin="round" stroke-miterlimit="10" d="
	M149.279,175.784l2.685,4.302c0,0,1.768-1.08,3.12-1.858c-1.464-2.147-3.015-4.904-3.015-4.904s-0.765-1.39-2.16-0.584
	C148.282,173.681,148.463,174.263,149.279,175.784z"/>
<line fill="#EFEFEF" stroke="#313131" stroke-width="0.5" stroke-linecap="round" stroke-linejoin="round" stroke-miterlimit="10" x1="153.131" y1="175.144" x2="150.066" y2="177.044"/>
<line fill="#EFEFEF" stroke="#313131" stroke-width="0.5" stroke-linecap="round" stroke-linejoin="round" stroke-miterlimit="10" x1="154.187" y1="158.851" x2="161.412" y2="171.339"/>
<line fill="#EFEFEF" stroke="#313131" stroke-width="0.5" stroke-linecap="round" stroke-linejoin="round" stroke-miterlimit="10" x1="156.732" y1="157.337" x2="165.663" y2="172.821"/>
<line fill="#EFEFEF" stroke="#313131" stroke-width="0.5" stroke-linecap="round" stroke-linejoin="round" stroke-miterlimit="10" x1="159.03" y1="156.078" x2="167.833" y2="171.339"/>
<line fill="#EFEFEF" stroke="#313131" stroke-width="0.5" stroke-linecap="round" stroke-linejoin="round" stroke-miterlimit="10" x1="162.873" y1="156.891" x2="153.591" y2="162.539"/>
<line fill="#EFEFEF" stroke="#313131" stroke-width="0.5" stroke-linecap="round" stroke-linejoin="round" stroke-miterlimit="10" x1="150.367" y1="163.652" x2="140.988" y2="169.3"/>
<line fill="#EFEFEF" stroke="#313131" stroke-width="0.5" stroke-linecap="round" stroke-linejoin="round" stroke-miterlimit="10" x1="146.671" y1="162.541" x2="151.363" y2="170.058"/>
<line fill="#EFEFEF" stroke="#313131" stroke-width="0.5" stroke-linecap="round" stroke-linejoin="round" stroke-miterlimit="10" x1="144.325" y1="163.982" x2="148.875" y2="171.475"/>
<line fill="#EFEFEF" stroke="#313131" stroke-width="0.5" stroke-linecap="round" stroke-linejoin="round" stroke-miterlimit="10" x1="141.851" y1="165.407" x2="146.671" y2="172.803"/>
<line fill="#EFEFEF" stroke="#313131" stroke-width="0.5" stroke-linecap="round" stroke-linejoin="round" stroke-miterlimit="10" x1="151.877" y1="166.168" x2="142.499" y2="171.816"/>
<line fill="#EFEFEF" stroke="#313131" stroke-width="0.5" stroke-linecap="round" stroke-linejoin="round" stroke-miterlimit="10" x1="161.716" y1="161.017" x2="155.18" y2="164.953"/>
<line fill="#EFEFEF" stroke="#313131" stroke-width="0.5" stroke-linecap="round" stroke-linejoin="round" stroke-miterlimit="10" x1="165.389" y1="161.923" x2="156.348" y2="167.355"/>
<line fill="#EFEFEF" stroke="#313131" stroke-width="0.5" stroke-linecap="round" stroke-linejoin="round" stroke-miterlimit="10" x1="164.726" y1="166.012" x2="158.099" y2="170.003"/>
<line fill="#EFEFEF" stroke="#313131" stroke-width="0.5" stroke-linecap="round" stroke-linejoin="round" stroke-miterlimit="10" x1="166.174" y1="168.581" x2="159.459" y2="172.624"/>
<line fill="#EFEFEF" stroke="#313131" stroke-width="0.5" stroke-linecap="round" stroke-linejoin="round" stroke-miterlimit="10" x1="137.909" y1="171.067" x2="129.963" y2="175.638"/>
<line fill="#EFEFEF" stroke="#313131" stroke-width="0.5" stroke-linecap="round" stroke-linejoin="round" stroke-miterlimit="10" x1="143.351" y1="180.627" x2="130.617" y2="188.094"/>
<line fill="#EFEFEF" stroke="#313131" stroke-width="0.5" stroke-linecap="round" stroke-linejoin="round" stroke-miterlimit="10" x1="141.504" y1="177.389" x2="130.437" y2="184.094"/>
<polyline fill="none" stroke="#313131" stroke-width="0.5" stroke-linecap="round" stroke-linejoin="round" stroke-miterlimit="10" points="
	138.268,179.125 136.473,175.956 130.181,179.719 "/>
<path opacity="0.3" fill="#313131" d="M173.813,168.078c0,0-0.375,3.839-3.375,5.537s-39.313,21.539-39.313,21.539v1.956
	l40.125-22.492C171.25,174.618,175.126,173.343,173.813,168.078z"/>
<line fill="#EFEFEF" stroke="#313131" stroke-width="0.5" stroke-linecap="round" stroke-linejoin="round" stroke-miterlimit="10" x1="132.75" y1="174.196" x2="134.501" y2="177.08"/>
<line fill="#EFEFEF" stroke="#313131" stroke-width="0.5" stroke-linecap="round" stroke-linejoin="round" stroke-miterlimit="10" x1="132.617" y1="170.917" x2="134.027" y2="173.316"/>
<line fill="#EFEFEF" stroke="#313131" stroke-width="0.5" stroke-linecap="round" stroke-linejoin="round" stroke-miterlimit="10" x1="133.511" y1="178.073" x2="135.25" y2="181.091"/>
<line fill="#EFEFEF" stroke="#313131" stroke-width="0.5" stroke-linecap="round" stroke-linejoin="round" stroke-miterlimit="10" x1="133.833" y1="182.105" x2="135.479" y2="185.125"/>
<line fill="#EFEFEF" stroke="#313131" stroke-width="0.5" stroke-linecap="round" stroke-linejoin="round" stroke-miterlimit="10" x1="140.177" y1="182.664" x2="142.021" y2="185.781"/>
<line fill="#EFEFEF" stroke="#313131" stroke-width="0.5" stroke-linecap="round" stroke-linejoin="round" stroke-miterlimit="10" x1="136.516" y1="184.856" x2="138.268" y2="187.817"/>
<line fill="#EFEFEF" stroke="#313131" stroke-width="0.5" stroke-linecap="round" stroke-linejoin="round" stroke-miterlimit="10" x1="132.956" y1="186.936" x2="134.755" y2="189.979"/>
<path fill="#F4ED98" stroke="#313131" stroke-linecap="round" stroke-linejoin="round" stroke-miterlimit="10" d="M99.25,128.146
	c0,0,4.172,1.875,5.378,2.458c-0.878,2.208-2.472,5.927-2.472,5.927s-4.024-2.813-5.99-6.433
	C96.904,129.167,99.25,128.146,99.25,128.146z"/>
<path fill="#F4ED98" stroke="#313131" stroke-linecap="round" stroke-linejoin="round" stroke-miterlimit="10" d="M110.629,128.146
	c0,0-4.172,1.875-5.378,2.458c0.843,1.271,3.218,5.927,3.218,5.927s4.688-3.969,4.993-6.219
	C112.724,129.381,110.629,128.146,110.629,128.146z"/>
<path fill="#F4ED98" stroke="#313131" stroke-linecap="round" stroke-linejoin="round" stroke-miterlimit="10" d="M129.69,136.033
	c0,0,0.045,3.847-0.501,6.28"/>
<path fill="#FFFFFF" stroke="#313131" stroke-linejoin="round" stroke-miterlimit="10" d="M71.25,179.135
	c0,0,4.625-2.86,6.313,1.304s-3.813,6.602-5.688,5.977S67.188,181.73,71.25,179.135z"/>
<path fill="#EAC4A7" stroke="#313131" stroke-linejoin="round" stroke-miterlimit="10" d="M157.648,184.858
	c0,0-2.11-6.044-5.263-7.352c-1.663,0.946-2.452,1.754-2.452,1.754l-2.046-1.188l-2.554,4.865l0.83,0.492l-2.578,2.825
	c0,0,1.38,2.366,0.995,3.643c-1.101,0.598-1.495,0.811-1.495,0.811l2.426,1.497c0,0,2.387-0.163,4.074-2.308
	c1.125,0.058,3.75-0.739,4.078-2.192C154.789,187.612,157.181,186.792,157.648,184.858z"/>
<path fill="#F4ED98" stroke="#313131" stroke-linecap="round" stroke-linejoin="round" stroke-miterlimit="10" d="M77.441,137.065
	c0,0-12.9,21.081-17.316,30.942c0.838,12.62,2.5,20.888,3.435,27.146c2.981-1.341,5.94-3.776,11.169-2.642
	c-0.708-4.417-1.771-14.439-2.688-22.509c4.083-7.464,6.458-12.107,8.958-15.607"/>
<path fill="#F4ED98" stroke="#313131" stroke-linecap="round" stroke-linejoin="round" stroke-miterlimit="10" d="M77.441,137.065
	c0,0,2.434,3.247,3.351,7.914"/>
<path fill="none" stroke="#313131" stroke-width="0.5" stroke-linecap="round" stroke-linejoin="round" stroke-miterlimit="10" d="
	M102.676,200.118c0,0,3.991-0.722,3.408-6.222c-0.243-2.288-4.615-32.885-4.615-32.885s-0.881-4.446-6.094-3.408"/>
<path opacity="0.4" fill="#313131" d="M124.228,34.434c0,0-18.937-5.621-26.853,0.462s12.167,10.583,19.833,12.25
	s16.604,6.535,19.344,9.143c-2.209-1.399-8.016-6.433-27.597-6.205S83.5,43.563,83.5,43.563s-7.026,0.675-11.992,7.296
	c-0.307,1.454-0.538,31.095-0.538,31.095l-2.907-4.078l-0.66-26.667c0,0,2.151-15.254,29.52-19.95
	C97.292,31.146,110.581,28.639,124.228,34.434z"/>
<path opacity="0.3" fill="#313131" d="M66.188,77.875c0,0-6.508-2.083-7.063,2.021c-0.749,5.542,1.694,9.827,2.625,11.375
	c-1.62-1.836-4.878-5.558-3.314-13.54C60.688,73.625,66.188,77.875,66.188,77.875z"/>
<path opacity="0.3" fill="#313131" d="M144.083,83.646c0,0,1.958,1,0.917,5.083c1.25-0.542,2.333-4.25,1.708-5.292
	S144.083,83.646,144.083,83.646z"/>
<path opacity="0.3" fill="#313131" d="M105.952,114.31c-0.485-0.035-4.384-0.626-4.481,0.626c-0.096,1.252,2.46,1.252,4.481,1.252
	s3.812,0.048,3.831-0.818C109.802,114.502,108.314,114.482,105.952,114.31z"/>
<path opacity="0.3" fill="#313131" d="M60.125,169.736c0,0-0.75,7.542-1,8.441s1.833,17.177,1.833,17.177s-0.833,6.542,0,10.417
	c1.371,0.167,2.583-0.375,2.583-0.375s-0.92-6.042-0.377-9.042c0.272-0.631,0.585-2.375,0.585-2.375L60.125,169.736z"/>
<path fill="none" stroke="#313131" stroke-linecap="round" stroke-linejoin="round" stroke-miterlimit="10" d="M149.934,179.261
	c0,0,4.019,3.4,3.73,8.445"/>
<path fill="none" stroke="#313131" stroke-linecap="round" stroke-linejoin="round" stroke-miterlimit="10" d="M146.189,183.483
	c0,0,3.186,2.496,3.396,6.415"/>
<path fill="#EAC4A7" stroke="#313131" stroke-linejoin="round" stroke-miterlimit="10" d="M161.642,180.517
	c0,0,0.23,4.149-3.993,4.342c-0.236-0.619-0.672-1.632-0.672-1.632L161.642,180.517z"/>
<path opacity="0.3" fill="#313131" d="M80.333,144.771c0,0-2.117-3.164-2.892-3.749c-0.775,0.874-7.782,10.113-9.487,12.139
	c1.975-3.443,9.487-15.516,9.487-15.516S80.375,141.604,80.333,144.771z"/>
<path fill="#F4ED98" stroke="#313131" stroke-linecap="round" stroke-linejoin="round" stroke-miterlimit="10" d="M109.79,153.438
	c0,0,7.398,0.261,13.085-0.276c0.188,1.901,0.625,11.75,0.625,11.75s-4.333,3.256-6.208,4.081s-7.083-3.585-7.083-3.585
	L109.79,153.438z"/>
<path fill="#F4ED98" stroke="#313131" stroke-linecap="round" stroke-linejoin="round" stroke-miterlimit="10" d="M109.923,157.242
	c0,0,4.827,0.869,9.577,0.095"/>
<path opacity="0.3" fill="#313131" d="M99.375,128.577c0,0-1.417,1.382-1.5,1.882c0.604,0.875,4.188,5.574,4.188,5.574
	s-4.771-3.7-5.542-5.866C96.938,129.75,98.574,128.59,99.375,128.577z"/>
<path opacity="0.3" fill="#313131" d="M110.08,154.073l0.129,11.334l5.979,3.698l4.847-2.418c0,0-3.003,3.049-5.271,3.371
	c-4.044-1.75-7.019-4.373-7.019-4.373l-0.225-11.402L110.08,154.073z"/>
<path opacity="0.3" fill="#313131" d="M68.208,193.229c0,0-3.25,2.333-3.125,3.875s-0.167,9.053,2.958,9.631
	s4.718,1.103,8.125,0.536c-2.167,0.792-7.465,2.453-10.5,0.583c-1.317-0.861-2.349-1.371-2.501-5.682s0.585-7.018,0.585-7.018
	S66.792,193.229,68.208,193.229z"/>
<path opacity="0.3" fill="#313131" d="M144.599,185.781c0,0,1.805,1.657,1.916,3.574c0.736,0.375,2.369,0.394,2.969-0.345
	c-0.334-1.287-1.257-3.885-3.921-6.322c0.082-0.342,0.344-0.583,0.626-1.219c1.254,0.944,3.877,3.125,4.853,6.052
	c0.667,0.333,2.042-0.327,2.375-1.184c0.021-2.722-2.073-6.118-2.073-6.118s2.063,0.873,3.573,5.761
	c0.75-0.417,2.06-2.753,2.06-2.753l4.436-2.289c0,0-0.438,3.555-3.612,3.423c-0.151,0.498-0.721,2.995-3.8,2.952
	c-0.333,1.25-2.746,2.625-4.415,2.833c-1.063,0.807-3.877,1.792-3.877,1.792l-2.207-1.455l1.078-0.585c0,0,0.754-0.585-0.538-3.46
	C144.167,186.229,144.599,185.781,144.599,185.781z"/>
<path opacity="0.3" fill="#313131" d="M92.67,157.941c0,0,6.517-1.977,7.642,6.041s3.75,28.643,3.75,28.643s1.25,6.938-6.5,7.875
	c2.313-0.125,7.75,0.646,8.375-4.542c0.104-0.958-0.396-5.209-0.688-7.354S101.333,161,101.333,161S101.299,156.007,92.67,157.941z"
	/>
</svg>
