<?xml version="1.0" encoding="utf-8"?>
<!-- Generator: Adobe Illustrator 15.0.0, SVG Export Plug-In . SVG Version: 6.00 Build 0)  -->
<!DOCTYPE svg PUBLIC "-//W3C//DTD SVG 1.1//EN" "http://www.w3.org/Graphics/SVG/1.1/DTD/svg11.dtd">
<svg version="1.1" id="man" xmlns="http://www.w3.org/2000/svg" xmlns:xlink="http://www.w3.org/1999/xlink" x="0px" y="0px"
	 width="211.313px" height="213.333px" viewBox="0 0 211.313 213.333" enable-background="new 0 0 211.313 213.333"
	 xml:space="preserve">
<circle fill="none" stroke="#313131" stroke-miterlimit="10" cx="105.786" cy="106.235" r="105"/>
<circle opacity="0.2" fill="#FFFFFF" cx="104.285" cy="112.684" r="71.017"/>
<path fill="#DD7F66" stroke="#313131" stroke-linecap="round" stroke-linejoin="round" stroke-miterlimit="10" d="M129.557,142.151
	c-10.625-6-18.536-7.542-25.822-8.229c0,0-22.852,3.927-27.741,9.664c-0.506,0.593-1.248,2.943-1.324,3.573
	c0,0,2.97,13.951,7.221,15.536c0.866,9.164-0.078,29.792-0.39,45.717c7.638,1.77,15.579,3.072,23.754,3.072
	c7.766,0,15.318-0.973,22.603-2.572c-0.332-12.809-0.896-30.458-1.634-47.365c1.375-1.875,7.501-10.188,7.501-10.188
	S132.015,144.901,129.557,142.151z"/>
<path fill="#EAC4A7" stroke="#313131" stroke-miterlimit="10" d="M97.104,125.291c0,0,2.788,1.486,2.121,9.653
	c5.164-1.334,6.102,0.869,10.892-0.274c-0.5-6.333,0.903-9.378,0.903-9.378S103.188,127.124,97.104,125.291z"/>
<path fill="#EAC4A7" stroke="#313131" stroke-linejoin="round" stroke-miterlimit="10" d="M69.39,59.443l-1.356,23.764
	c0,0-10.81-3.903-9.31,7.398c1.292,9.737,7.438,8.754,9.424,6.352c0,5,10.576,32.333,36.667,32.333
	c27.16,0,34.761-30.958,34.761-30.958s1.772,2.959,5.815-0.056c4.917-3.667,5.667-17.5-3.292-15
	c-2.119,0.591-2.875,1.146-2.875,1.146l-2.583-26.896C136.64,57.526,105.39,37.776,69.39,59.443z"/>
<circle fill="#313131" cx="85.805" cy="85.083" r="1.417"/>
<circle fill="#313131" cx="123.472" cy="85.083" r="1.417"/>
<path fill="#EAC4A7" stroke="#313131" stroke-linecap="round" stroke-linejoin="round" stroke-miterlimit="10" d="M64.88,86.953
	c-3.114-0.453-2.906,6.207,0.219,6.469"/>
<path fill="#EAC4A7" stroke="#313131" stroke-linecap="round" stroke-linejoin="round" stroke-miterlimit="10" d="M142.099,87.83
	c4.292-0.98,2.375,6.301,0,6.301"/>
<path fill="none" stroke="#313131" stroke-width="0.5" stroke-linecap="round" stroke-linejoin="round" stroke-miterlimit="10" d="
	M102.117,140.58"/>
<path opacity="0.3" fill="#313131" d="M99.369,129.29c0,0,0.115,5.528,0.083,5.715s2.335-0.656,5.219-0.188
	c4.289-0.168,4.271,1.221,5.302-0.333c-0.07-1.306,0-5.481,0-5.481S106.89,130.189,99.369,129.29z"/>
<path opacity="0.3" fill="#313131" d="M142.099,94.13c0,0,2.237-0.188,2.55-4.313c-0.146-0.749-0.591-2.542-2.8-1.792
	C143.374,89.29,142.099,94.13,142.099,94.13z"/>
<path opacity="0.3" fill="#313131" d="M65.099,93.422c0,0-2.117-0.007-2.43-4.132c0.146-0.749,1.086-2.865,2.586-2.365
	C63.873,89.672,65.099,93.422,65.099,93.422z"/>
<path opacity="0.3" fill="#313131" d="M89.557,79.304c1.125-1.375,1.625-2.625,1.625-2.625S84.39,71.322,78.224,78.7
	C82.141,77.197,85.847,77.052,89.557,79.304z"/>
<path fill="#4C423B" stroke="#313131" stroke-linejoin="round" stroke-miterlimit="10" d="M89.849,77.487
	c1.125-1.375,1.625-2.625,1.625-2.625s-6.792-5.356-12.958,2.021C82.432,75.381,86.138,75.235,89.849,77.487z"/>
<path opacity="0.3" fill="#313131" d="M117.849,79.304c-1.125-1.375-1.625-2.625-1.625-2.625s6.792-5.356,12.958,2.021
	C125.266,77.197,121.56,77.052,117.849,79.304z"/>
<path fill="#4C423B" stroke="#313131" stroke-linejoin="round" stroke-miterlimit="10" d="M117.558,77.487
	c-1.125-1.375-1.625-2.625-1.625-2.625s6.792-5.356,12.958,2.021C124.974,75.381,121.268,75.235,117.558,77.487z"/>
<path fill="none" stroke="#313131" stroke-linecap="round" stroke-linejoin="round" stroke-miterlimit="10" d="M97.104,108.377
	c0,0,2.265,2.221,8.119,2.187c4.865-0.491,6.452-1.619,6.452-1.619"/>
<path fill="none" stroke="#313131" stroke-linecap="round" stroke-linejoin="round" stroke-miterlimit="10" d="M98.559,112.833
	c0,0,2.71,1.505,5.065,0.943s4.349,0.432,6.349-0.755"/>
<path fill="none" stroke="#313131" stroke-linecap="round" stroke-linejoin="round" stroke-miterlimit="10" d="M105.786,85.083
	c0,0-0.313,6.171,0.563,7.692c0.75,2.083,4.313,1.74,3.875,4.302s-4.625,6.969-9.063,1.656"/>
<polygon opacity="0.3" fill="#313131" points="94.255,136.234 99.782,145.703 104.671,138.297 110.192,145.016 113.567,137.569 
	106.982,133.922 104.671,135.011 102.117,133.922 "/>
<path opacity="0.3" fill="#313131" d="M101.161,99.141c0,0,1.162,4.156,4.55,4.156s4.763-3.75,4.95-6.125
	C110.005,98.141,105.974,104.047,101.161,99.141z"/>
<path opacity="0.3" fill="#313131" d="M99.357,113.68c0,0,0.845,3.242,5.314,2.805s5.374-1.742,5.311-3.117
	c-1.701,0.396-4.685,0.542-5.311,0.479S101.823,113.472,99.357,113.68z"/>
<path opacity="0.3" fill="#313131" d="M68.147,96.957c0,0,9.576,30.047,36.826,29.715s34.368-27.494,34.368-27.494
	s-9.17,31.076-34.368,29.826S70.946,108.366,68.147,96.957z"/>
<path fill="#4C423B" stroke="#313131" stroke-linejoin="round" stroke-miterlimit="10" d="M76.974,43.859
	c0,0-15.875,7.625-8.94,39.348c3.098-9.38,3.94-27.29,14.19-29.54C79.849,51.292,76.974,43.859,76.974,43.859z"/>
<path fill="none" stroke="#313131" stroke-width="0.5" stroke-linejoin="round" stroke-miterlimit="10" d="M84.059,139.002
	c0,0,4.523,59.781,2.709,70.515"/>
<path opacity="0.3" fill="#313131" d="M81.654,208.109c0,0,17.363,4.432,24.613,3.369c5.402,0.164,15.832-1.229,21.591-2.566
	c-0.045-1.496-0.328-16.594-0.328-16.594l-45.876-0.396V208.109z"/>
<path fill="none" stroke="#313131" stroke-width="0.5" stroke-linejoin="round" stroke-miterlimit="10" d="M91.181,136.744
	c0,0,2.678,57.783,2.363,73.917"/>
<path fill="none" stroke="#313131" stroke-width="0.5" stroke-linejoin="round" stroke-miterlimit="10" d="M99.369,139.002
	c0,0,1.116,68.349,0.491,72.234"/>
<path fill="none" stroke="#313131" stroke-linecap="round" stroke-linejoin="round" stroke-miterlimit="10" d="M104.671,135.229
	c0,0,1.721,73.658,1.596,76.25"/>
<line fill="none" stroke="#313131" stroke-width="0.5" stroke-linejoin="round" stroke-miterlimit="10" x1="111.318" y1="137.707" x2="113.382" y2="210.964"/>
<path fill="none" stroke="#313131" stroke-width="0.5" stroke-linejoin="round" stroke-miterlimit="10" d="M118.52,137.05
	c0,0,0.871,66.838,2.871,73.199"/>
<path fill="#4C423B" stroke="#313131" stroke-linejoin="round" stroke-miterlimit="10" d="M74.252,31.484
	c0,0-11.772,21.402,19.722,26.375c19,3,33.5-7.375,39.375,0c2.682,3.367,2,20.875,5.875,26.563
	c1.375-7.313,4.877-23.468,0.118-33.979c-5.792-12.792-15.461-20.243-29.081-18C97.104,34.609,80.099,41.109,74.252,31.484z"/>
<path fill="#DD7F66" stroke="#313131" stroke-linecap="round" stroke-linejoin="round" stroke-miterlimit="10" d="M125.39,160.109
	c1,14.88-0.138,16.558,0.083,21.333c-17.75,2.875-41.313-5.396-41.313-5.396s-0.438,8-3.402,13.563
	c31.177,4.419,56.858,5.223,57.464-2.375c1.875-23.5-6.389-41.14-6.389-41.14"/>
<path fill="#DD7F66" stroke="#313131" stroke-linecap="round" stroke-linejoin="round" stroke-miterlimit="10" d="M84.526,175.272
	l7.072,2.337c0,0,0.563,6.25-1.438,8.875c-3.375-0.375-8.507-1.256-8.507-1.256S84.454,177.998,84.526,175.272z"/>
<path fill="#DD7F66" stroke="#313131" stroke-linecap="round" stroke-linejoin="round" stroke-miterlimit="10" d="M82.067,162.484
	c-1.292,5,0.797,16.652,0.575,21.428c2.833,1.091,33.081,1.479,33.081,1.479s-0.333,2.981,0,10.406
	c-33.932,1.063-49.263-0.066-49.083-7.687c0.583-24.833,8.292-42.015,8.292-42.015"/>
<path fill="#EAC4A7" stroke="#313131" stroke-linejoin="round" stroke-miterlimit="10" d="M115.416,186.712l4.745-0.228
	c0,0-1.161-4.053,1.817-5.169c2.979-1.117,4.495-1.331,5.245-5.331c0.681-3.63,3.938-0.712,2.818,2.841
	c-0.651,2.067-3.273,5.157-1.526,5.325c1.748,0.168,6.846-0.138,9.985-1.75c2.098,0.375,1.542,2.387,0,3.25
	c-1.672,0.936-2.458,1.041-4.277,0.958c1.845,0.124,2.394-0.062,4.512-1.106c1.951-0.961,2.845,3.299-0.903,3.606
	c-2.422,0.199-3.681,0.19-3.681,0.19s4.04,0.091,5.377-0.762c1.086,2.142-0.866,3.523-5.119,3.451
	c1.765-0.064,2.882-0.203,4.232-0.746c0.703,3.67-4.513,3.873-5.961,3.875c-2.862,0.004-3.139,0.243-5.543-0.214
	c-3.415-0.649-4.198-1.851-4.198-1.851l-7.305,0.611C115.636,193.665,114.491,188.839,115.416,186.712z"/>
<path opacity="0.3" fill="#313131" d="M71.807,171.3l-1.458,2.19c0,0-1.75,2.745,0,5.536c0.083,0.833-0.333,2.625,2.083,3.417
	c-0.49,0.901-1.013,3.537,4.854,2.38c3.317-0.839,3.969-0.401,7.24-0.745c-4.375-0.672-4.678-0.734-4.678-0.734
	S74.391,171.949,71.807,171.3z"/>
<path fill="#DD7F66" stroke="#313131" stroke-linecap="round" stroke-linejoin="round" stroke-miterlimit="10" d="M107.624,184.823
	c0,0,1.287,8.113-0.315,11.313c1.438,0.063,9.313-0.396,9.313-0.396s1.352-5.63-0.113-10.34
	C115.587,185.329,112.125,184.823,107.624,184.823"/>
<path fill="none" stroke="#313131" stroke-width="0.5" stroke-linecap="round" stroke-linejoin="round" stroke-miterlimit="10" d="
	M107.978,193.566c0,0-37.628,3.542-39.061-4.374c-0.997-5.508,5.402-34.587,8.979-40.804s20.27-7.809,20.27-7.809"/>
<line fill="none" stroke="#313131" stroke-width="0.5" stroke-linecap="round" stroke-linejoin="round" stroke-miterlimit="10" x1="67.415" y1="176.744" x2="80.759" y2="177.172"/>
<path fill="none" stroke="#313131" stroke-width="0.5" stroke-linecap="round" stroke-linejoin="round" stroke-miterlimit="10" d="
	M68.917,166.86c0,0,11.643,3.137,12.737,4.439"/>
<path fill="none" stroke="#313131" stroke-width="0.5" stroke-linecap="round" stroke-linejoin="round" stroke-miterlimit="10" d="
	M107.978,189.609c0,0-28.361,2.142-33.891-2.138c-3.03-2.695,5.801-33.556,5.801-33.556s9.398-4.639,24.784-4.723
	s18.469,0.569,20.719,1.152s7.018-2.909,7.018-2.909"/>
<path fill="#EAC4A7" stroke="#313131" stroke-linejoin="round" stroke-miterlimit="10" d="M81.654,166.101
	c0,0,1.9-0.139,2.872,5.199c-1.129-0.038-2.834-0.284-2.834-0.284L81.654,166.101z"/>
<path fill="#EAC4A7" stroke="#313131" stroke-linejoin="round" stroke-miterlimit="10" d="M81.628,169.758
	c0,0-3.438,1.531-7.862,0.414c-2.402-0.606-2.24,2.452-0.083,3.292c1.365,0.531,5.833,0.188,5.833,0.188s-4.184,0.721-7.655-0.438
	c-2.052-0.685-2.192,2.694,0.683,3.573c2.227,0.681,6.148,0.79,7.388,0.74c-5.035,1.001-8.848-1.369-8.937,0.283
	c-0.105,1.967,1.56,3.481,8.963,3.06c-2.505,0.45-8.164-0.568-7.194,1.408c0.758,1.545,2.474,1.734,4.25,1.426
	c2.354-0.217,4.828,0.226,5.962,0.197c2.933-0.075,2.018-3.529,2.018-3.529s2.133-1.751,1.212-3.534
	c-0.922-1.783,0.435-1.747-0.909-3.792C83.954,171,84.853,168.98,81.628,169.758z"/>
<polyline fill="none" stroke="#313131" stroke-width="0.5" stroke-linecap="round" stroke-linejoin="round" stroke-miterlimit="10" points="
	101.818,140.282 125.64,142.151 127.224,141.216 "/>
<path fill="#DD7F66" stroke="#313131" stroke-linecap="round" stroke-linejoin="round" stroke-miterlimit="10" d="M99.425,132.234
	c0,0,3.973,2.271,5.246,2.583c-0.79,1.25-4.448,8.667-4.448,8.667l-5.332-7.526C94.892,135.958,96.627,132.609,99.425,132.234z"/>
<path fill="#DD7F66" stroke="#313131" stroke-linecap="round" stroke-linejoin="round" stroke-miterlimit="10" d="M110.105,132.234
	c0,0-3.859,2.229-5.132,2.542c0.79,1.25,4.75,8.208,4.75,8.208l4.708-7.039C114.432,135.945,112.904,132.609,110.105,132.234z"/>
<path fill="none" stroke="#313131" stroke-width="0.5" stroke-linecap="round" stroke-linejoin="round" stroke-miterlimit="10" d="
	M75.994,143.586c0,0,5.727,13.719,6.073,18.898"/>
<path fill="none" stroke="#313131" stroke-width="0.5" stroke-linecap="round" stroke-linejoin="round" stroke-miterlimit="10" d="
	M71.325,156.63c0,0,9.235,7.489,10.329,8.792"/>
<path fill="none" stroke="#313131" stroke-width="0.5" stroke-linecap="round" stroke-linejoin="round" stroke-miterlimit="10" d="
	M66.76,184.823c0,0,4.229-1.707,6.315-2.054"/>
<path fill="none" stroke="#313131" stroke-width="0.5" stroke-linecap="round" stroke-linejoin="round" stroke-miterlimit="10" d="
	M78.394,183.643c0,0-6.529,4.005-7.068,9.923"/>
<path fill="none" stroke="#313131" stroke-width="0.5" stroke-linecap="round" stroke-linejoin="round" stroke-miterlimit="10" d="
	M84.526,184.25c0,0-3.073,8.53-1.979,11.403"/>
<path fill="none" stroke="#313131" stroke-width="0.5" stroke-linecap="round" stroke-linejoin="round" stroke-miterlimit="10" d="
	M93.066,184.823c0,0,0.57,9.73,1.405,11.301"/>
<path fill="none" stroke="#313131" stroke-width="0.5" stroke-linecap="round" stroke-linejoin="round" stroke-miterlimit="10" d="
	M101.645,185.101c0,0,2.081,7.24,1.08,11"/>
<path fill="none" stroke="#313131" stroke-width="0.5" stroke-linecap="round" stroke-linejoin="round" stroke-miterlimit="10" d="
	M125.39,160.109c0,0,0.25-15.227,0.25-19.53"/>
<path fill="none" stroke="#313131" stroke-width="0.5" stroke-linecap="round" stroke-linejoin="round" stroke-miterlimit="10" d="
	M129.557,142.151c0,0,2,23.173,0.54,33.957"/>
<path fill="none" stroke="#313131" stroke-width="0.5" stroke-linecap="round" stroke-linejoin="round" stroke-miterlimit="10" d="
	M135.418,156.63c0,0,0.573,22.164-0.978,27.071"/>
<path fill="none" stroke="#313131" stroke-width="0.5" stroke-linecap="round" stroke-linejoin="round" stroke-miterlimit="10" d="
	M77.661,183.796c0,0-2.406,3.005,30.143,2.374"/>
<path fill="none" stroke="#313131" stroke-width="0.5" stroke-linecap="round" stroke-linejoin="round" stroke-miterlimit="10" d="
	M81.69,160.109c0,0,22.3-6.083,43.764-4.042c3.833,1.261,6.215-0.058,9.528-0.021"/>
<path fill="none" stroke="#313131" stroke-width="0.5" stroke-linecap="round" stroke-linejoin="round" stroke-miterlimit="10" d="
	M83.565,168.018c0,0,32.825-3.95,41.95-2.596"/>
<path fill="none" stroke="#313131" stroke-width="0.5" stroke-linecap="round" stroke-linejoin="round" stroke-miterlimit="10" d="
	M125.792,172.442c-0.818-0.083-39.599,1.048-39.599,1.048"/>
<line fill="none" stroke="#313131" stroke-width="0.5" stroke-linecap="round" stroke-linejoin="round" stroke-miterlimit="10" x1="125.39" y1="179.026" x2="97.841" y2="179.755"/>
<path fill="none" stroke="#313131" stroke-width="0.5" stroke-linecap="round" stroke-linejoin="round" stroke-miterlimit="10" d="
	M125.792,163.859c0,0,4.474,2,10.766-0.792"/>
<path fill="none" stroke="#313131" stroke-width="0.5" stroke-linecap="round" stroke-linejoin="round" stroke-miterlimit="10" d="
	M126.099,171.943c0,0,1.792,2.167,11.667-0.208"/>
<path fill="none" stroke="#313131" stroke-width="0.5" stroke-linecap="round" stroke-linejoin="round" stroke-miterlimit="10" d="
	M129.557,180.878c0,0,3.417,1.481,8.708-0.852"/>
<path fill="none" stroke="#313131" stroke-width="0.5" stroke-linecap="round" stroke-linejoin="round" stroke-miterlimit="10" d="
	M81.744,198.607c0,0,29.085,2.416,45.824,0"/>
<path fill="none" stroke="#313131" stroke-width="0.5" stroke-linecap="round" stroke-linejoin="round" stroke-miterlimit="10" d="
	M81.744,204.777c0,0,33.252,2.5,45.824,0"/>
<path fill="none" stroke="#313131" stroke-width="0.5" stroke-linecap="round" stroke-linejoin="round" stroke-miterlimit="10" d="
	M119.632,185.101"/>
<path fill="none" stroke="#313131" stroke-width="0.5" stroke-linecap="round" stroke-linejoin="round" stroke-miterlimit="10" d="
	M86.192,179.391"/>
<path fill="none" stroke="#313131" stroke-width="0.5" stroke-linecap="round" stroke-linejoin="round" stroke-miterlimit="10" d="
	M89.765,177.172c0,0,0.083,6.737-0.604,7.409"/>
<path fill="none" stroke="#313131" stroke-width="0.5" stroke-linecap="round" stroke-linejoin="round" stroke-miterlimit="10" d="
	M95.786,179.391c0,0,0.5,3.886-0.563,5.433"/>
<path fill="none" stroke="#313131" stroke-width="0.5" stroke-linecap="round" stroke-linejoin="round" stroke-miterlimit="10" d="
	M103.557,180.878c0,0.273-0.309,3.662-0.56,4.222"/>
<path fill="none" stroke="#313131" stroke-width="0.5" stroke-linecap="round" stroke-linejoin="round" stroke-miterlimit="10" d="
	M117.191,182.246c0,0,0.7,3.159,0.366,4.011"/>
<path fill="none" stroke="#313131" stroke-width="0.5" stroke-linecap="round" stroke-linejoin="round" stroke-miterlimit="10" d="
	M110.724,182.106c0,0,0.094,2.182-0.266,2.475"/>
<path fill="none" stroke="#313131" stroke-width="0.5" stroke-linecap="round" stroke-linejoin="round" stroke-miterlimit="10" d="
	M111.057,184.917c0,0,2.333,5.035,0.559,10.737"/>
<path fill="none" stroke="#313131" stroke-width="0.5" stroke-linecap="round" stroke-linejoin="round" stroke-miterlimit="10" d="
	M108.265,192.317c0,0,7.292,0.125,8.625,0"/>
<path fill="none" stroke="#313131" stroke-width="0.5" stroke-linecap="round" stroke-linejoin="round" stroke-miterlimit="10" d="
	M108.042,187.139c0,0,7.292,0.125,8.625,0"/>
<path fill="none" stroke="#313131" stroke-width="0.5" stroke-linecap="round" stroke-linejoin="round" stroke-miterlimit="10" d="
	M102.321,133.922c0,0-3.519,3.938-3.704,7.294"/>
<path fill="none" stroke="#313131" stroke-width="0.5" stroke-linecap="round" stroke-linejoin="round" stroke-miterlimit="10" d="
	M107.804,133.922c0,0,2.829,3.544,3.583,6.199"/>
<path fill="none" stroke="#313131" stroke-width="0.5" stroke-linecap="round" stroke-linejoin="round" stroke-miterlimit="10" d="
	M110.417,132.289c0,0,2.525,2.863,3.15,4.732"/>
<path fill="none" stroke="#313131" stroke-width="0.5" stroke-linecap="round" stroke-linejoin="round" stroke-miterlimit="10" d="
	M99.442,132.734c0,0-3.063,1.828-3.672,4.463"/>
<path fill="none" stroke="#313131" stroke-width="0.5" stroke-linecap="round" stroke-linejoin="round" stroke-miterlimit="10" d="
	M96.224,133.922c0,0,3.564,4.919,5.595,6.199"/>
<path fill="none" stroke="#313131" stroke-width="0.5" stroke-linecap="round" stroke-linejoin="round" stroke-miterlimit="10" d="
	M108.087,140.121c0,0,3.985-4.486,4.832-6.332"/>
<path opacity="0.3" fill="#313131" d="M125.057,160.776c0,0-5.71,17.001-33.083,17.429c0.708-0.533,21.594,8.051,33.667,1.549
	C125.599,178.318,125.849,162.776,125.057,160.776z"/>
<path opacity="0.3" fill="#313131" d="M73.075,151.484c0,0,3.572-6.396,8.579,11.583c0.274,0.055,0.226-0.833,0.226-0.833
	s-0.699-6.042-5.886-17.917C75.474,145.526,73.075,151.484,73.075,151.484z"/>
<path opacity="0.3" fill="#313131" d="M68.261,170.575c0,0-1.568,18.382,5.826,19.57c19.681,3.162,33.717,2.002,33.717,2.002
	l0.084,2.038h8.779l-0.234,1.468c0,0-28.667,1.205-39.208-0.919c-2.465-0.499-9.349-0.377-10.583-6.625
	C65.947,184.6,66.982,178.231,68.261,170.575z"/>
<path opacity="0.6" fill="#313131" d="M74.252,31.484c0,0,2.387,10.368,33.867,1.34c-4.27,1.66-14.77,7.597-2.864,13.222
	s29.407-7.247,29.907,18.626c-0.75-3.376,0.5-12.845-16.469-8.064c-14.688,2.063-28.375,2.125-36.469-2.281
	C73.477,49.566,69.037,44.307,74.252,31.484z"/>
<path opacity="0.6" fill="#313131" d="M73.603,47.096c0,0-11.091,7.959-5.629,34.326c1.125-3.375,5.125-24.5,12.563-27.5
	C78.849,52.984,74.107,48.396,73.603,47.096z"/>
</svg>
