<?xml version="1.0" encoding="utf-8"?>
<!-- Generator: Adobe Illustrator 15.0.0, SVG Export Plug-In . SVG Version: 6.00 Build 0)  -->
<!DOCTYPE svg PUBLIC "-//W3C//DTD SVG 1.1//EN" "http://www.w3.org/Graphics/SVG/1.1/DTD/svg11.dtd">
<svg version="1.1" id="man2" xmlns="http://www.w3.org/2000/svg" xmlns:xlink="http://www.w3.org/1999/xlink" x="0px" y="0px"
	 width="211.313px" height="213.333px" viewBox="0 0 211.313 213.333" enable-background="new 0 0 211.313 213.333"
	 xml:space="preserve">
<circle fill="none" stroke="#313131" stroke-miterlimit="10" cx="105.786" cy="106.235" r="105"/>
<circle opacity="0.2" fill="#FFFFFF" cx="104.285" cy="112.684" r="71.017"/>
<path fill="#C2DB67" stroke="#313131" stroke-linecap="round" stroke-linejoin="round" stroke-miterlimit="10" d="M129.557,142.151
	c-10.625-6-18.536-7.542-25.822-8.229c0,0-22.852,3.927-27.741,9.664c-0.506,0.593-1.248,2.943-1.324,3.573
	c0,0,2.97,13.951,7.221,15.536c0.866,9.164-0.078,29.792-0.39,45.717c7.638,1.77,15.579,3.072,23.754,3.072
	c7.766,0,15.318-0.973,22.603-2.572c-0.332-12.809-0.896-30.458-1.634-47.365c1.375-1.875,7.501-10.188,7.501-10.188
	S132.015,144.901,129.557,142.151z"/>
<path opacity="0.3" fill="#313131" d="M125.057,160.776c0,0-5.71,17.001-33.083,17.429c0.708-0.533,21.594,8.051,33.667,1.549
	C125.599,178.318,125.849,162.776,125.057,160.776z"/>
<path fill="#846D5D" stroke="#313131" stroke-linejoin="round" stroke-miterlimit="10" d="M97.104,125.291
	c0,0,2.788,1.486,2.121,9.653c5.164-1.334,6.102,0.869,10.892-0.274c-0.5-6.333,0.903-9.378,0.903-9.378
	S103.188,127.124,97.104,125.291z"/>
<path opacity="0.3" fill="#313131" d="M99.369,129.29c0,0,0.115,5.528,0.083,5.715s2.335-0.656,5.219-0.188
	c4.289-0.168,4.271,1.221,5.302-0.333c-0.07-1.306,0-5.481,0-5.481S106.89,130.189,99.369,129.29z"/>
<path fill="#846D5D" stroke="#313131" stroke-linejoin="round" stroke-miterlimit="10" d="M69.75,55.458l-1.603,28.958
	c0,0-14.147-4.896-12.741,6.979c1.223,10.328,10.755,7.963,12.741,5.561c0,5,10.576,32.333,36.667,32.333
	c27.16,0,34.761-30.958,34.761-30.958s4.006,3.184,8.05,0.168c4.917-3.667,4.585-17.417-3.75-15.417
	c-2.139,0.513-4.651,1.338-4.651,1.338l-0.974-29.338C138.25,55.083,105.75,33.792,69.75,55.458z"/>
<circle fill="#313131" cx="85.805" cy="85.083" r="1.417"/>
<circle fill="#313131" cx="123.472" cy="85.083" r="1.417"/>
<path fill="none" stroke="#313131" stroke-linecap="round" stroke-linejoin="round" stroke-miterlimit="10" d="M64.347,88.396
	c-3.114-0.453-3.875,5.015,0,5.28"/>
<path fill="none" stroke="#313131" stroke-linecap="round" stroke-linejoin="round" stroke-miterlimit="10" d="M143.249,88.552
	c3.408,0.969,1.76,5.499-0.615,5.499"/>
<path fill="none" stroke="#313131" stroke-width="0.5" stroke-linecap="round" stroke-linejoin="round" stroke-miterlimit="10" d="
	M102.117,140.58"/>
<path opacity="0.3" fill="#313131" d="M142.469,93.865c0,0,2.407,1.249,2.72-2.876c0.155-0.624-0.689-2.573-2.22-2.437
	C144.494,89.816,142.469,93.865,142.469,93.865z"/>
<path opacity="0.3" fill="#313131" d="M63.883,93.672c0,0-2.161,0.224-2.363-2.738c0.146-0.749,1.02-3.1,2.52-2.6
	C62.657,91.08,63.883,93.672,63.883,93.672z"/>
<path fill="none" stroke="#313131" stroke-linecap="round" stroke-linejoin="round" stroke-miterlimit="10" d="M95.563,106.425
	c0,0,3.055,1.335,9.91,1.334c5.846,0.044,8.527-1.334,8.527-1.334"/>
<path fill="none" stroke="#313131" stroke-linecap="round" stroke-linejoin="round" stroke-miterlimit="10" d="M95.77,110.871
	c0,0,3.672,2.863,7.854,1.692c2.332-0.652,7.563,1.42,9.294-1.442"/>
<path fill="none" stroke="#313131" stroke-linecap="round" stroke-linejoin="round" stroke-miterlimit="10" d="M111.292,94.574
	c0.75,2.083-1.766,3.624-3.083,2.369c-0.542,1.798-5.318,5.178-9.755-0.134"/>
<polygon opacity="0.3" fill="#313131" points="94.255,136.234 99.782,145.703 104.671,138.297 110.192,145.016 113.567,137.569 
	106.982,133.922 104.671,135.011 102.117,133.922 "/>
<path opacity="0.3" fill="#313131" d="M98.454,97.214c0,0,2.201,4.526,5.589,4.526c1.574,0,3.917-1.542,4.708-2.458
	c3.958,0,4.229-2.067,2.542-4.708c-0.227,0.335,0.583,2.875-2.379,2.537C106.476,99.151,102.518,101.046,98.454,97.214z"/>
<path opacity="0.3" fill="#313131" d="M99.357,112.467c0,0,0.845,3.242,5.314,2.805s5.374-1.742,5.311-3.117
	c-1.701,0.396-4.685,0.542-5.311,0.479S101.823,112.259,99.357,112.467z"/>
<path opacity="0.3" fill="#313131" d="M68.147,96.957c0,0,9.576,30.047,36.826,29.715s34.368-27.494,34.368-27.494
	s-9.17,31.076-34.368,29.826S70.946,108.366,68.147,96.957z"/>
<path opacity="0.3" fill="#313131" d="M81.654,208.109c0,0,17.363,4.432,24.613,3.369c5.402,0.164,15.832-1.229,21.591-2.566
	c-0.045-1.496-0.328-16.594-0.328-16.594l-45.876-0.396V208.109z"/>
<path fill="none" stroke="#313131" stroke-linecap="round" stroke-linejoin="round" stroke-miterlimit="10" d="M104.671,135.229
	c0,0,1.721,73.658,1.596,76.25"/>
<path fill="#C2DB67" stroke="#313131" stroke-linecap="round" stroke-linejoin="round" stroke-miterlimit="10" d="M125.39,160.109
	c1,14.88-0.138,16.558,0.083,21.333c-17.75,2.875-41.313-5.396-41.313-5.396s-0.438,8-3.402,13.563
	c31.177,4.419,56.858,5.223,57.464-2.375c1.875-23.5-6.389-41.14-6.389-41.14"/>
<path fill="#C2DB67" stroke="#313131" stroke-linecap="round" stroke-linejoin="round" stroke-miterlimit="10" d="M84.526,175.272
	l7.072,2.337c0,0,0.563,6.25-1.438,8.875c-3.375-0.375-8.507-1.256-8.507-1.256S84.454,177.998,84.526,175.272z"/>
<path fill="#C2DB67" stroke="#313131" stroke-linecap="round" stroke-linejoin="round" stroke-miterlimit="10" d="M82.067,162.484
	c-1.292,5,0.797,16.652,0.575,21.428c2.833,1.091,33.081,1.479,33.081,1.479s-0.333,2.981,0,10.406
	c-33.932,1.063-49.263-0.066-49.083-7.687c0.583-24.833,8.292-42.015,8.292-42.015"/>
<path fill="#846D5D" stroke="#313131" stroke-linejoin="round" stroke-miterlimit="10" d="M115.416,186.712l4.745-0.228
	c0,0-1.161-4.053,1.817-5.169c2.979-1.117,4.495-1.331,5.245-5.331c0.681-3.63,3.938-0.712,2.818,2.841
	c-0.651,2.067-3.273,5.157-1.526,5.325c1.748,0.168,6.846-0.138,9.985-1.75c2.098,0.375,1.542,2.387,0,3.25
	c-1.672,0.936-2.458,1.041-4.277,0.958c1.845,0.124,2.394-0.062,4.512-1.106c1.951-0.961,2.845,3.299-0.903,3.606
	c-2.422,0.199-3.681,0.19-3.681,0.19s4.04,0.091,5.377-0.762c1.086,2.142-0.866,3.523-5.119,3.451
	c1.765-0.064,2.882-0.203,4.232-0.746c0.703,3.67-4.513,3.873-5.961,3.875c-2.862,0.004-3.139,0.243-5.543-0.214
	c-3.415-0.649-4.198-1.851-4.198-1.851l-7.305,0.611C115.636,193.665,114.491,188.839,115.416,186.712z"/>
<path opacity="0.3" fill="#313131" d="M71.807,171.3l-1.458,2.19c0,0-1.75,2.745,0,5.536c0.083,0.833-0.333,2.625,2.083,3.417
	c-0.49,0.901-1.013,3.537,4.854,2.38c3.317-0.839,3.969-0.401,7.24-0.745c-4.375-0.672-4.678-0.734-4.678-0.734
	S74.391,171.949,71.807,171.3z"/>
<path fill="#C2DB67" stroke="#313131" stroke-linecap="round" stroke-linejoin="round" stroke-miterlimit="10" d="M107.624,184.823
	c0,0,1.287,8.113-0.315,11.313c1.438,0.063,9.313-0.396,9.313-0.396s1.352-5.63-0.113-10.34
	C115.587,185.329,112.125,184.823,107.624,184.823"/>
<path fill="#846D5D" stroke="#313131" stroke-linejoin="round" stroke-miterlimit="10" d="M81.654,166.101
	c0,0,1.9-0.139,2.872,5.199c-1.129-0.038-2.834-0.284-2.834-0.284L81.654,166.101z"/>
<path fill="#846D5D" stroke="#313131" stroke-linejoin="round" stroke-miterlimit="10" d="M81.628,169.758
	c0,0-3.438,1.531-7.862,0.414c-2.402-0.606-2.24,2.452-0.083,3.292c1.365,0.531,5.833,0.188,5.833,0.188s-4.184,0.721-7.655-0.438
	c-2.052-0.685-2.192,2.694,0.683,3.573c2.227,0.681,6.148,0.79,7.388,0.74c-5.035,1.001-8.848-1.369-8.937,0.283
	c-0.105,1.967,1.56,3.481,8.963,3.06c-2.505,0.45-8.164-0.568-7.194,1.408c0.758,1.545,2.474,1.734,4.25,1.426
	c2.354-0.217,4.828,0.226,5.962,0.197c2.933-0.075,2.018-3.529,2.018-3.529s2.133-1.751,1.212-3.534
	c-0.922-1.783,0.435-1.747-0.909-3.792C83.954,171,84.853,168.98,81.628,169.758z"/>
<path fill="#C2DB67" stroke="#313131" stroke-linecap="round" stroke-linejoin="round" stroke-miterlimit="10" d="M99.425,132.234
	c0,0,3.973,2.271,5.246,2.583c-0.79,1.25-4.448,8.667-4.448,8.667l-5.332-7.526C94.892,135.958,96.627,132.609,99.425,132.234z"/>
<path fill="#C2DB67" stroke="#313131" stroke-linecap="round" stroke-linejoin="round" stroke-miterlimit="10" d="M110.105,132.234
	c0,0-3.859,2.229-5.132,2.542c0.79,1.25,4.75,8.208,4.75,8.208l4.708-7.039C114.432,135.945,112.904,132.609,110.105,132.234z"/>
<path fill="none" stroke="#313131" stroke-width="0.5" stroke-linecap="round" stroke-linejoin="round" stroke-miterlimit="10" d="
	M119.632,185.101"/>
<path fill="none" stroke="#313131" stroke-width="0.5" stroke-linecap="round" stroke-linejoin="round" stroke-miterlimit="10" d="
	M86.192,179.391"/>
<path opacity="0.3" fill="#313131" d="M68.261,170.575c0,0-1.568,18.382,5.826,19.57c19.681,3.162,33.717,2.002,33.717,2.002
	l0.084,2.038h8.779l-0.234,1.468c0,0-28.667,1.205-39.208-0.919c-2.465-0.499-9.349-0.377-10.583-6.625
	C65.947,184.6,66.982,178.231,68.261,170.575z"/>
<path opacity="0.3" fill="#313131" d="M83.93,75.236c0,0-2.865,0.5-3.339,2.063s2.214-0.125,3.339,0s2.75,0.867,2.813-0.473
	S83.93,75.236,83.93,75.236z"/>
<path fill="#313131" stroke="#313131" stroke-linejoin="round" stroke-miterlimit="10" d="M83.875,73.646c0,0-2.865,0.5-3.339,2.063
	s2.214-0.125,3.339,0s2.75,0.867,2.813-0.473S83.875,73.646,83.875,73.646z"/>
<path opacity="0.3" fill="#313131" d="M122.294,75.806c0,0,2.865,0.5,3.339,2.063s-2.214-0.125-3.339,0s-2.75,0.867-2.813-0.473
	S122.294,75.806,122.294,75.806z"/>
<path fill="#313131" stroke="#313131" stroke-linejoin="round" stroke-miterlimit="10" d="M122.35,74.216c0,0,2.865,0.5,3.339,2.063
	s-2.214-0.125-3.339,0s-2.75,0.867-2.813-0.473S122.35,74.216,122.35,74.216z"/>
<path fill="#313131" stroke="#313131" stroke-linejoin="round" stroke-miterlimit="10" d="M68.147,84.417
	c0,0-6.429-28.333,4.478-37.708c9.137-7.854,23.067-13,30.448-12.875s35.892,3.009,37.927,24.5
	c1.73,18.268-1.776,26.088-1.776,26.088s1.151-26.921-7.349-30.588c-6.751-2.913-28.316-10.279-53.405,0.982
	C68.147,60.208,68.147,84.417,68.147,84.417z"/>
<circle fill="#313131" cx="89.042" cy="144.109" r="1.125"/>
<circle fill="#313131" cx="95.77" cy="149.333" r="1.125"/>
<circle fill="#313131" cx="102.417" cy="144.609" r="1.125"/>
<circle fill="#313131" cx="80.125" cy="147.22" r="1.125"/>
<circle fill="#313131" cx="87.317" cy="151.583" r="1.125"/>
<circle fill="#313131" cx="94.892" cy="158.25" r="1.125"/>
<circle fill="#313131" cx="111.021" cy="149.333" r="1.125"/>
<circle fill="#313131" cx="120.083" cy="152.708" r="1.125"/>
<circle fill="#313131" cx="126.771" cy="146.359" r="1.125"/>
<circle fill="#313131" cx="118.316" cy="144.609" r="1.125"/>
<circle fill="#313131" cx="123.292" cy="139.813" r="1.125"/>
<path fill="#313131" d="M117.974,136.734c0,0.621-0.504,1.125-1.125,1.125s-1.125-0.504-1.125-1.125s0.187-0.526,0.808-0.526
	S117.974,136.203,117.974,136.734z"/>
<circle fill="#313131" cx="93.099" cy="138.688" r="1.125"/>
<circle fill="#313131" cx="87.317" cy="160.776" r="1.125"/>
<circle fill="#313131" cx="94.892" cy="168" r="1.125"/>
<circle fill="#313131" cx="102.619" cy="154.958" r="1.125"/>
<circle fill="#313131" cx="112.25" cy="157.667" r="1.125"/>
<circle fill="#313131" cx="115.724" cy="166.101" r="1.125"/>
<circle fill="#313131" cx="101.494" cy="164.25" r="1.125"/>
<circle fill="#313131" cx="109.63" cy="164.25" r="1.125"/>
<circle fill="#313131" cx="121.208" cy="160.776" r="1.125"/>
<circle fill="#313131" cx="128.625" cy="154.958" r="1.125"/>
<path fill="#313131" d="M135.458,156.083c0,0.621,0.013,1.125-0.608,1.125s-1.125-0.504-1.125-1.125s0.504-1.125,1.125-1.125
	S135.458,155.462,135.458,156.083z"/>
<circle fill="#313131" cx="131.875" cy="149.917" r="1.125"/>
<circle fill="#313131" cx="132.333" cy="166.875" r="1.125"/>
<circle fill="#313131" cx="127.896" cy="162.333" r="1.125"/>
<circle fill="#313131" cx="135.975" cy="162.333" r="1.125"/>
<circle fill="#313131" cx="135.975" cy="177.5" r="1.125"/>
<circle fill="#313131" cx="131.875" cy="172.703" r="1.125"/>
<circle fill="#313131" cx="131.208" cy="180.878" r="1.125"/>
<circle fill="#313131" cx="121.542" cy="177.869" r="1.125"/>
<circle fill="#313131" cx="124.417" cy="169.587" r="1.125"/>
<circle fill="#313131" cx="117.974" cy="171.488" r="1.125"/>
<circle fill="#313131" cx="112.919" cy="176.744" r="1.125"/>
<circle fill="#313131" cx="109.292" cy="171.116" r="1.125"/>
<circle fill="#313131" cx="101.494" cy="176.375" r="1.125"/>
<path fill="#313131" d="M90.354,177.181c0,0.621-0.504,1.125-1.125,1.125s-1.125-0.504-1.125-1.125s0.316-0.639,0.938-0.639
	S90.354,176.56,90.354,177.181z"/>
<circle fill="#313131" cx="95.77" cy="182.2" r="1.125"/>
<path fill="#313131" d="M104.869,180.878c0.204,0.587-0.504,1.125-1.125,1.125s-1.125-0.504-1.125-1.125s0.343-0.42,0.964-0.42
	S104.756,180.552,104.869,180.878z"/>
<path fill="#313131" d="M104.367,184.823c0,0.621-0.504,1.125-1.125,1.125s-1.125-0.504-1.125-1.125
	c0-0.406,0.504,0.073,1.125,0.073S104.367,184.438,104.367,184.823z"/>
<circle fill="#313131" cx="70.75" cy="189.358" r="1.125"/>
<circle fill="#313131" cx="80.759" cy="187.073" r="1.125"/>
<circle fill="#313131" cx="82.375" cy="191.922" r="1.125"/>
<circle fill="#313131" cx="75.795" cy="193.417" r="1.125"/>
<circle fill="#313131" cx="94.645" cy="188.198" r="1.125"/>
<circle fill="#313131" cx="87.917" cy="189.323" r="1.125"/>
<path fill="#313131" d="M92.306,195.667c0,0.621-0.504,0.682-1.125,0.682s-1.125-0.061-1.125-0.682s0.504-1.125,1.125-1.125
	S92.306,195.046,92.306,195.667z"/>
<circle fill="#313131" cx="99.782" cy="192.667" r="1.125"/>
<circle fill="#313131" cx="104.974" cy="189.323" r="1.125"/>
<circle fill="#313131" cx="110.755" cy="187.073" r="1.125"/>
<path fill="#313131" d="M117.375,190.552c0,0.621-0.087,1.056-0.708,1.056s-1.125-0.504-1.125-1.125s0.504-1.125,1.125-1.125
	S117.375,189.931,117.375,190.552z"/>
<circle fill="#313131" cx="111.794" cy="192.948" r="1.125"/>
<circle fill="#313131" cx="124.417" cy="198.917" r="1.125"/>
<circle fill="#313131" cx="126.771" cy="205.75" r="1.125"/>
<circle fill="#313131" cx="118.917" cy="204.625" r="1.125"/>
<circle fill="#313131" cx="106.911" cy="207.25" r="1.125"/>
<circle fill="#313131" cx="111.125" cy="201.167" r="1.125"/>
<circle fill="#313131" cx="99.782" cy="200.658" r="1.125"/>
<circle fill="#313131" cx="95.77" cy="207.25" r="1.125"/>
<circle fill="#313131" cx="90.167" cy="200.042" r="1.125"/>
<circle fill="#313131" cx="82.375" cy="204.625" r="1.125"/>
<circle fill="#313131" cx="92.306" cy="174.833" r="1.125"/>
<circle fill="#313131" cx="87.917" cy="169.125" r="1.125"/>
<circle fill="#313131" cx="79" cy="163.851" r="1.125"/>
<circle fill="#313131" cx="81.25" cy="154.958" r="1.125"/>
<circle fill="#313131" cx="74.125" cy="158.25" r="1.125"/>
<circle fill="#313131" cx="71.875" cy="166.101" r="1.125"/>
<circle fill="#313131" cx="74.67" cy="149.333" r="1.125"/>
<circle fill="#313131" cx="83.875" cy="139.813" r="1.125"/>
<path fill="#313131" d="M99.015,139.455c0,0.621-0.289,1.004-0.91,1.004s-1.146-0.774-1.146-1.396s0.31-0.733,0.931-0.733
	S99.015,138.833,99.015,139.455z"/>
<circle fill="#313131" cx="108.81" cy="133.922" r="1.125"/>
<circle fill="#313131" cx="101.292" cy="135.609" r="1.125"/>
<circle fill="#313131" cx="112.442" cy="136.484" r="1.125"/>
<path fill="#313131" d="M109.255,139.455c0,0.621-0.378,1.116-1,1.116s-0.802-0.71-0.802-1.331s0.056-0.91,0.677-0.91
	S109.255,138.833,109.255,139.455z"/>
<path fill="#313131" d="M97.786,133.823c0,0.621-0.504,1.125-1.125,1.125s-0.708,0.085-0.708-0.536s0.525-1.521,1.146-1.521
	S97.786,133.202,97.786,133.823z"/>
<path opacity="0.3" fill="#313131" d="M68.708,79.917c0,0,3.667-27.917,32.917-29c33.248-1.231,35.922,9.593,37.422,19.677
	c0.833-5.583,4.89-24.093-34.266-22.843S70.125,64.917,68.708,79.917z"/>
</svg>
