<?xml version="1.0" encoding="utf-8"?>
<!-- Generator: Adobe Illustrator 15.0.0, SVG Export Plug-In . SVG Version: 6.00 Build 0)  -->
<!DOCTYPE svg PUBLIC "-//W3C//DTD SVG 1.1//EN" "http://www.w3.org/Graphics/SVG/1.1/DTD/svg11.dtd">
<svg version="1.1" id="designer" xmlns="http://www.w3.org/2000/svg" xmlns:xlink="http://www.w3.org/1999/xlink" x="0px" y="0px"
	 width="211.313px" height="214.563px" viewBox="0 0 211.313 214.563" enable-background="new 0 0 211.313 214.563"
	 xml:space="preserve">
<circle fill="none" stroke="#313131" stroke-miterlimit="10" cx="105.625" cy="105.896" r="105"/>
<circle opacity="0.2" fill="#FFFFFF" cx="104.115" cy="111.584" r="71.017"/>
<polygon fill="#FFFFFF" stroke="#313131" stroke-linecap="round" stroke-linejoin="round" stroke-miterlimit="10" points="
	163.242,136.876 158.688,138.147 159.873,142.123 164.455,140.834 "/>
<path fill="#313131" stroke="#313131" stroke-linecap="round" stroke-linejoin="round" stroke-miterlimit="10" d="M139.908,170.334
	c0,0,6.352-5.883,8.405-18.066C146.88,154.148,140.7,162.917,139.908,170.334z"/>
<path fill="#EAC4A7" stroke="#313131" stroke-miterlimit="10" d="M187.575,153.066c0-5.502-1.623-6.23-1.623-6.23
	s-0.093-0.099-1.127,0.249c-0.5-1-1.333-2.583-3.5-3.889c-4.125,1.181-7.833,5.057-7.833,5.057s0.108,3.59,0.437,7.299
	c-6.463,4.685-18.305,9.867-18.305,9.867l-11.591-10.125l-4.125,8.25c3.374,3.064,11.125,8.125,16.5,10.5
	c3.606-1.169,14.201-8.29,18.695-11.371l0,0c1.278,3.337,8.972-1.42,11.638-2.42C189.158,156.334,188.408,154.251,187.575,153.066z"
	/>
<path fill="#FFFFFF" stroke="#313131" stroke-linecap="round" stroke-linejoin="round" stroke-miterlimit="10" d="M130.625,135.386
	L130.625,135.386c-7.25-2.623-10.201-4.804-26.822-6.809c0,0-22.938,5.333-30.438,10.833s4.251,13.007,4.422,20.632
	c0.147,6.572,0.873,33.845,1.257,48.206c8.49,2.215,17.397,2.981,26.581,2.981c10.166,0,19.162-1.657,28.11-4.138
	c-0.073-12.931-0.132-31.237-0.687-43.218c0.446,0.469,6.535,6.151,6.859,6.461c2.813-10.354,8.405-18.066,8.405-18.066
	l-9.605-8.198C136.042,141.854,132.393,136.746,130.625,135.386z"/>
<path fill="#EAC4A7" stroke="#313131" stroke-miterlimit="10" d="M97.506,120.744c0,0,2.788,1.486,2.121,9.653
	c3.694,3.174,8.559,3.226,10.892-0.274c-0.5-6.333,0.903-9.378,0.903-9.378S103.589,122.577,97.506,120.744z"/>
<path fill="#EAC4A7" stroke="#313131" stroke-miterlimit="10" d="M68.549,52.077L68.435,78.66c0,0-12.583-6.5-13.917,1.167
	s3.583,16.583,14.03,12.583c0,5,4.667,32.333,36.667,32.333s34.761-30.958,34.761-30.958s3.125,3.042,8.375,0.375
	c5.609-2.849,11.31-17.989-1.333-17c-3.825,0.299-6.566,4.217-6.566,4.217l0.43-29.3C140.882,52.077,104.549,30.41,68.549,52.077z"
	/>
<path opacity="0.3" fill="#313131" d="M140.278,77.146c0,0,0.397-21.333-19.083-26.271c-18.837-4.774-25.503-4.025-37.043-2.377
	c4.293-1.686,27.21-8.019,55.043,2.231C140.195,52.229,141.278,70.646,140.278,77.146z"/>
<path fill="#52504E" stroke="#313131" stroke-miterlimit="10" d="M64.072,76.909l-2.845-30.124c0,0-2.25-11.625,13.125-14
	c4.125-6.25,17-26.25,60.75-6.625c37,16.75,10.875,19.625,10.875,19.625s10.552,4.572-0.073,31.572
	c-3.25,0.25-5.724,4.596-5.724,4.596l-1.453-29.043c0,0-24.875-15.544-65.75-1.522c-0.375,2.522-1.313,19.084-1.75,30.272
	C67.593,77.545,64.072,76.909,64.072,76.909z"/>
<circle fill="#313131" cx="86.206" cy="80.537" r="1.417"/>
<circle fill="#313131" cx="105.866" cy="143.195" r="0.875"/>
<circle fill="#313131" cx="105.866" cy="148.553" r="0.875"/>
<circle fill="#313131" cx="123.873" cy="80.537" r="1.417"/>
<path opacity="0.3" fill="#313131" d="M76.25,77.563c0,0,5.864-4.228,15.509-2.307c2.287-3.188-0.637-4.845-0.637-4.845
	S80,70.146,76.25,77.563z"/>
<path opacity="0.3" fill="#313131" d="M133.417,77.563c0,0-5.451-4.519-15.097-2.598c-2.287-3.188,0.637-4.845,0.637-4.845
	S131.542,70.688,133.417,77.563z"/>
<path fill="#52504E" stroke="#313131" stroke-linecap="round" stroke-linejoin="round" stroke-miterlimit="10" d="M77.787,74.969
	c0,0,5.168-3.467,14.813-1.546c2.287-3.188-0.637-4.845-0.637-4.845S82.173,68.501,77.787,74.969z"/>
<path fill="#52504E" stroke="#313131" stroke-linecap="round" stroke-linejoin="round" stroke-miterlimit="10" d="M132.472,75.136
	c0,0-5.084-3.588-14.772-1.897c-2.129-3.575,0.752-4.829,0.752-4.829S128.24,68.566,132.472,75.136z"/>
<path fill="none" stroke="#313131" stroke-linecap="round" stroke-linejoin="round" stroke-miterlimit="10" d="M97.935,94.827
	c0,0,2.577,2.028,5.411,2.653c3.483,0.768,5.673-2.569,8.089-3.236s0.005-4.583-3.414-3.083c-0.003-2.333-0.503-5.416-0.503-5.416"
	/>
<path fill="#FFFFFF" stroke="#313131" stroke-linecap="round" stroke-linejoin="round" stroke-miterlimit="10" d="M89.054,103.297
	c0,0,15.875,3.426,25.875-1.512c3.156-1.564,6.688-3.625,6.688-3.625s1.313,5.063-0.77,8.813c-2.73,1.688-12.855,7.375-29.146,2.979
	C93.492,107.119,91.242,104.344,89.054,103.297z"/>
<path fill="#FFFFFF" stroke="#313131" stroke-width="0.5" stroke-linecap="round" stroke-linejoin="round" stroke-miterlimit="10" d="
	M122.007,102.5c0,0-10.265,8.155-29.694,4.82"/>
<path opacity="0.2" fill="#313131" d="M79.042,155.563l4.474,53.73c0,0-2.25-0.375-3.891-1.646
	c-0.557-3.021-1.952-50.25-1.952-50.25L79.042,155.563"/>
<path fill="#313131" d="M121.095,98.461c0,0,0.601,3.793-1.462,5.23c0.236-0.006,0.18,0.242,0.328,0.359
	c1.328,0.094,0.813,1.828,0.531,2.625C121.77,105.52,122.629,101.887,121.095,98.461z"/>
<path fill="#EAC4A7" stroke="#313131" stroke-linecap="round" stroke-linejoin="round" stroke-miterlimit="10" d="M64.219,83.239
	c0,0-2.031-2.279-3.615-0.768c-1.792,1.71-0.5,5.833,1.958,5.583"/>
<path fill="#EAC4A7" stroke="#313131" stroke-linecap="round" stroke-linejoin="round" stroke-miterlimit="10" d="M143.707,84.724
	c0,0,2.031-2.279,3.615-0.768c1.792,1.71,0.5,5.833-1.958,5.583"/>
<path fill="#EAD478" stroke="#313131" stroke-miterlimit="10" d="M75.325,202.209l-4.193,7.117c0,0,1.651,5.05,7.568,4.383
	c1.167-2.25,4.333-7.083,4.333-7.083S77.075,204.625,75.325,202.209z"/>
<path fill="#EAC4A7" stroke="#313131" stroke-miterlimit="10" d="M67.992,165.417c0,0-8.667,13.834-8.5,17.834
	c3.667,4,15,9.833,17.333,10.667c0-2.833-0.083-6.365,3.417-6.646c2.058-0.166,7.102,0.418,5.938,4.438
	c2.071,0.98,4.718,2.555,6.594,4.344c-1.655,2.833-2.885,3.531-2.885,3.531s2.271,0.896-0.125,3.896s-3.604,2.438-3.604,2.438
	l-3.125,3.375c0,0-8.673-2.527-10.155-7.875c-4.054-3.333-16.221-10-20.887-13.833c-4.175-3.429,7.466-22.276,9.584-26.333
	C65.649,164.083,67.992,165.417,67.992,165.417"/>
<path fill="#FFFFFF" stroke="#313131" stroke-linecap="round" stroke-linejoin="round" stroke-miterlimit="10" d="M72.427,140.192
	c0,0-8.936,8.81-15.403,21.97c3.667,3.167,11.717,9.506,11.717,9.506s7.33-13.329,9.917-16.208"/>
<path fill="#EAD478" stroke="#313131" stroke-miterlimit="10" d="M81.95,191.917c0,0,2.417,3.375,6.542,4.083
	c1-1.25,7.5-10.795,7.5-10.795l1.583-9.955l-8.417,5L81.95,191.917z"/>
<path fill="#FFFFFF" stroke="#313131" stroke-linecap="round" stroke-linejoin="round" stroke-miterlimit="10" d="M89.158,180.251
	c0,0-0.75,2.375,1.458,2.167c0.167,1.333,1.5,2.458,2.833,1.75c0.083,0.917,0.75,2.451,2.542,1.038
	c0.298-1.877,1.583-9.955,1.583-9.955L89.158,180.251z"/>
<path fill="#DBDBDB" stroke="#313131" stroke-linecap="round" stroke-linejoin="round" stroke-miterlimit="10" d="M72.242,207.442
	c0,0,1.221,3.595,7.746,4.015c-0.464,0.779-1.288,2.252-1.288,2.252s-5.928,1.004-7.568-4.383
	C71.492,208.709,72.242,207.442,72.242,207.442z"/>
<path fill="#313131" d="M93.939,177.652c0,0,1.188,1.672,2.688,1.484c0.219-1.125,0.563-3.25,0.563-3.25L93.939,177.652z"/>
<line fill="none" stroke="#313131" stroke-width="0.5" stroke-linecap="round" stroke-linejoin="round" stroke-miterlimit="10" x1="90.617" y1="182.417" x2="83.516" y2="193.558"/>
<line fill="none" stroke="#313131" stroke-width="0.5" stroke-linecap="round" stroke-linejoin="round" stroke-miterlimit="10" x1="93.45" y1="184.167" x2="85.926" y2="195.163"/>
<line fill="#FFFFFF" stroke="#313131" stroke-width="0.5" stroke-linecap="round" stroke-linejoin="round" stroke-miterlimit="10" x1="76.009" y1="205.709" x2="73.846" y2="209.438"/>
<line fill="#FFFFFF" stroke="#313131" stroke-width="0.5" stroke-linecap="round" stroke-linejoin="round" stroke-miterlimit="10" x1="78.66" y1="207.442" x2="76.687" y2="210.881"/>
<path opacity="0.3" fill="#313131" d="M108.917,142.32c0,0,3.372-4.15,4.763-7.117c-0.888-1.307-4.555-4.307-4.555-4.307
	s-4.042,4.333-7.958,0c-0.56-0.801-6.617,1.375-6.617,1.375s0.576,6.1,4.597,10.133c0.459-0.471,2.013-1.754,2.962-3.022v0.001
	l0.225,14.096c0,0,2.5,0.458,5.042,0c-0.048-0.531-0.048-0.531-0.048-0.531s-3.639,0.177-4.264-0.115
	c-0.019-0.583-0.42-11.327-0.521-14.031c1.269-1.71,2.451-3.365,2.451-3.365L108.917,142.32z"/>
<path fill="#FFFFFF" stroke="#313131" stroke-linecap="round" stroke-linejoin="round" stroke-miterlimit="10" d="M99.392,127.994
	c0,0,0.876,3.427,5.6,4.736c-1.427,1.561-2.971,3.958-5.221,7.781c-2.458-2.574-4.654-6.927-5.221-9.562
	C94.549,130.949,95.658,128.105,99.392,127.994z"/>
<path fill="#FFFFFF" stroke="#313131" stroke-linecap="round" stroke-linejoin="round" stroke-miterlimit="10" d="M110.494,127.994
	c0,0-0.779,3.427-5.502,4.736c1.427,1.561,3.104,4.5,4.602,7.56c5.704-5.767,5.743-9.341,5.743-9.341
	S113.575,127.501,110.494,127.994z"/>
<path fill="none" stroke="#313131" stroke-width="0.5" stroke-linecap="round" stroke-linejoin="round" stroke-miterlimit="10" d="
	M102.518,136.033c0,0,0.39,10.343,0.515,16.885c1.833,0.333,4.583,0,4.583,0"/>
<path fill="#EAC4A7" stroke="#313131" stroke-miterlimit="10" d="M172.658,157.917c0,0-7.5-1.667-4.833-4.083
	s3.917-5.333,4.833-7.417s3.583-1.228,5.083,1.261s-2,4.589-2,4.589s-0.333,4.255,3.635,2.462"/>
<path fill="#EAC4A7" stroke="#313131" stroke-miterlimit="10" d="M184.825,147.084c0,0-6.048,2.128-7.498,3.793"/>
<path fill="#EAC4A7" stroke="#313131" stroke-linecap="round" stroke-linejoin="round" stroke-miterlimit="10" d="M187.575,153.066
	c0,0-6.354,0.945-8.198,1.664c-0.5,1.563,0.344,3.844,0.344,3.844s7.719-0.594,4.531,1.406"/>
<path fill="none" stroke="#313131" stroke-linecap="round" stroke-linejoin="round" stroke-miterlimit="10" d="M169.283,137.292
	c7.25-1.125,6.89,8.638,6.89,8.638"/>
<path fill="#313131" stroke="#313131" stroke-linecap="round" stroke-linejoin="round" stroke-miterlimit="10" d="M162.659,136.209
	c0,0,5.458-2.514,6.5,1.243s-4.833,4.364-4.833,4.364L162.659,136.209z"/>
<line fill="#FFFFFF" stroke="#313131" stroke-width="0.5" stroke-linecap="round" stroke-linejoin="round" stroke-miterlimit="10" x1="160.627" y1="138.98" x2="161.571" y2="138.761"/>
<line fill="#FFFFFF" stroke="#313131" stroke-width="0.5" stroke-linecap="round" stroke-linejoin="round" stroke-miterlimit="10" x1="160.938" y1="140.131" x2="161.882" y2="139.912"/>
<path fill="none" stroke="#313131" stroke-linecap="round" stroke-linejoin="round" stroke-miterlimit="10" d="M180.492,158.703
	c0,0-0.82,27.131-0.32,33.964"/>
<path fill="#FFFFFF" stroke="#313131" stroke-linecap="round" stroke-linejoin="round" stroke-miterlimit="10" d="M179.71,192.735
	c0,0-5.407-0.027-6.295,6.316c-0.752,5.371-1.665,15.091,6.605,14.983s7.583-8.377,7.476-12.889
	C187.388,196.635,184.877,192.057,179.71,192.735z"/>
<path fill="#DDDDDD" stroke="#313131" stroke-width="0.5" stroke-linecap="round" stroke-linejoin="round" stroke-miterlimit="10" d="
	M180.25,196.628c0,0-0.741-0.097-0.736,1.622c0.001,0.564-0.012,1.871,0.693,1.818c0.785-0.059,0.79-1.535,0.778-2.005
	C180.975,197.594,180.874,196.503,180.25,196.628z"/>
<path opacity="0.3" fill="#313131" d="M173.938,198.563c0,0-2.104,12.459,5.021,13.084s7.927-4.872,8.25-7.042
	c-0.042,1.625,0.208,10.417-8.167,9.125S173.604,199.758,173.938,198.563z"/>
<path opacity="0.3" fill="#313131" d="M74.25,204.438c0,0,3.396,3.292,7.021,4.5c-0.313,0.417-1.479,2.292-1.479,2.292
	s-6.292-0.388-7.271-3.788C72.938,206.646,74.25,204.438,74.25,204.438z"/>
<path opacity="0.3" fill="#313131" d="M64.219,83.595c0,0-4.219,1.763-1.261,4.469c-1.836-0.415-4.292-1.46-2.708-5.627
	C61.792,80.773,64.147,83.169,64.219,83.595z"/>
<path opacity="0.3" fill="#313131" d="M143.693,85.128c0,0,4.219,1.763,1.261,4.469c1.836-0.415,4.292-1.46,2.708-5.627
	C146.121,82.307,143.766,84.703,143.693,85.128z"/>
<path opacity="0.5" fill="#313131" d="M118.732,20.17c0,0-27.695-3.857-32.526,7.768s20.308,3.875,35.801,12.125
	c9.618,4.625,11.974,10.547,11.974,10.547s-18.026-9.727-49.191-2.595c-5.659,1.446-11.813,3.374-11.813,3.374l-2.018,29.148
	c0,0-4.242-3.567-6.739-3.891c-0.47-3.155-3.171-27.521-3.091-32.011s3.45-11.044,13.223-11.85
	C75.564,30.987,85.172,11.36,118.732,20.17z"/>
<path opacity="0.3" fill="#313131" d="M111.063,94.563c0,0-2.939,3.292-5.523,4.833c-2.119,1.264-6.438-3.188-7.706-4.146
	C99.607,96.167,104.729,99.729,111.063,94.563z"/>
<path opacity="0.3" fill="#313131" d="M99.771,124.743c0,0,0.323,3.851,0.292,4.038s2.046,3.188,4.929,3.656
	c0.293,0.207,3.93-1.2,5.172-4.444c-0.07-1.306,0.211-3.537,0.211-3.537S107.291,125.643,99.771,124.743z"/>
<path opacity="0.3" fill="#313131" d="M64.626,170.334L60,167.188c0,0-9.5,16.119-6.688,18.591s18.621,14.908,18.621,14.908
	l-18.791-12.208c0,0-3.964-1.45-0.398-9.541s6.87-14.166,6.87-14.166l5.846,4.292L64.626,170.334z"/>
<path opacity="0.2" fill="#313131" d="M67.841,145.93c0,0-7.966,12.715-7.216,14.549s2.516,5.793,7.216,9.855
	c-2.633-1.771-10.526-7.923-10.526-7.923S63.808,150.214,67.841,145.93z"/>
<path opacity="0.3" fill="#313131" d="M68.458,91.917l1.917-0.854c0,0,3.5,28.417,29.75,31.583c16.333,1.833,23.748-3,23.748-3
	s-9.07,7.25-26.367,4.167S71.965,110.931,68.458,91.917z"/>
<polygon opacity="0.2" fill="#313131" points="139.908,169.625 132.875,163.438 133.433,207.175 128.475,208.477 131.257,160.179 
	140.438,167.313 "/>
<path opacity="0.3" fill="#313131" d="M68.063,79.12c0,0-9.646-4.891-11.438,0c-1.442,3.935,0,10.817,4.125,13.317
	c-3.375-1.125-6.329-3.5-6.446-12.438C54.313,78.375,56.813,72.428,68.063,79.12z"/>
<path opacity="0.2" fill="#313131" d="M142.875,162.065c0,0,11.375,8.497,13.438,9.435c2.063-0.625,18.313-9,18.313-9
	s-12,9.25-18.125,11c-2.149-0.436-14.594-8.298-14.594-8.298L142.875,162.065z"/>
<path opacity="0.3" fill="#313131" d="M175.744,152.788c0,0-3.369,1.774,0.714,6.941c2.75,3.083,7.542,0.45,7.542,0.45
	s3.312-1.841-3.99-1.625c-1.177-0.242-1.052-3.325-1.052-3.325S175.958,155.958,175.744,152.788z"/>
</svg>
