<?xml version="1.0" encoding="utf-8"?>
<!-- Generator: Adobe Illustrator 15.0.0, SVG Export Plug-In . SVG Version: 6.00 Build 0)  -->
<!DOCTYPE svg PUBLIC "-//W3C//DTD SVG 1.1//EN" "http://www.w3.org/Graphics/SVG/1.1/DTD/svg11.dtd">
<svg version="1.1" id="doctor" xmlns="http://www.w3.org/2000/svg" xmlns:xlink="http://www.w3.org/1999/xlink" x="0px" y="0px"
	 width="211.313px" height="213.583px" viewBox="0 0 211.313 213.583" enable-background="new 0 0 211.313 213.583"
	 xml:space="preserve">
<circle fill="none" stroke="#313131" stroke-miterlimit="10" cx="105.729" cy="106.22" r="105"/>
<circle opacity="0.2" fill="#FFFFFF" cx="104.218" cy="111.658" r="71.017"/>
<polygon fill="#BFBFBF" stroke="#313131" stroke-linejoin="round" stroke-miterlimit="10" points="133.792,174.313 159.625,169.183 
	158.042,205.333 133.792,202.826 "/>
<path fill="#FFFFFF" stroke="#313131" stroke-linecap="round" stroke-linejoin="round" stroke-miterlimit="10" d="M135.75,141.208
	c-2.25-7.313-24.328-13.375-31.613-14.063c0,0-18.449,3.875-28.324,9.5c-10.063,18.188-11.688,21.938-15.271,38.271
	c5.192,11.03,12.167,0,12.167,0s3.746-12.768,6.706-18.216c1.188,7.625,1.835,37.083,1.051,51.46
	c7.56,1.729,17.867,3.06,25.951,3.06c8.292,0,15.454-1.156,22.125-2.485c-0.176-10.62,0.34-30.204-0.684-53.651
	c2.917,15.813,4.643,24.75,4.643,24.75s10.119,4.317,12.229-1.667C139.958,154.833,138.125,148.521,135.75,141.208z"/>
<path fill="#EAC4A7" stroke="#313131" stroke-miterlimit="10" d="M97.506,118.515c0,0,2.788,1.486,2.121,9.653
	c1.893,0.794,4.248,2.072,5.717,4.3c5.531-2.005,5.5-4.322,5.163-7.009c-0.5-6.333,0.916-6.944,0.916-6.944
	S103.589,120.348,97.506,118.515z"/>
<path fill="#EAC4A7" stroke="#313131" stroke-linejoin="round" stroke-miterlimit="10" d="M68.594,49.5l-0.159,26.931
	c0,0-11.874-4.783-11.227,2.293c0.917,10.019,9.333,15.026,11.34,11.457c1.302,6.653,8.152,32.6,36.667,32.333
	c30.66-0.287,34.761-30.958,34.761-30.958s9.32,5.68,11.273-12.105c1.125-10.242-11.563-1.805-11.563-1.805l-0.5-30
	C139.188,47.646,104.594,27.833,68.594,49.5z"/>
<circle fill="#313131" cx="86.792" cy="79.15" r="1.417"/>
<path opacity="0.3" fill="#313131" d="M116.438,98.583c0,0-5.74,7.591-16.333,6.982c-4.022-0.271-9.182-6.082-9.182-6.082
	s0.787,11.662,16.495,9.975C111.72,108.958,117.813,103.146,116.438,98.583z"/>
<circle fill="#313131" cx="121.04" cy="78.724" r="1.417"/>
<path fill="#EAC4A7" stroke="#313131" stroke-linecap="round" stroke-linejoin="round" stroke-miterlimit="10" d="M63.493,79.483
	c-3.114-0.453-0.937,3.969,0,5"/>
<path fill="#EAC4A7" stroke="#313131" stroke-linecap="round" stroke-linejoin="round" stroke-miterlimit="10" d="M144.958,79.451
	c2.917-1.042,1.963,3.677,0,5.883"/>
<path fill="none" stroke="#313131" stroke-width="0.5" stroke-linecap="round" stroke-linejoin="round" stroke-miterlimit="10" d="
	M102.518,133.804"/>
<path opacity="0.3" fill="#313131" d="M144.729,85.344c0,0,1.993-1.292,2.306-5.417c-0.146-0.749-0.347-0.812-1.847-0.312
	C145.438,84.323,144.729,85.344,144.729,85.344z"/>
<path opacity="0.3" fill="#313131" d="M77.84,75.23c0,0,7.408-4.25,17.075-0.959c1.935-0.854,0.602-2.312,0.602-2.312
	s-7.875-3.625-18.207,0.625C75.602,73.707,77.84,75.23,77.84,75.23z"/>
<path opacity="0.3" fill="#313131" d="M63.823,84.354c0,0-1.406,0.603-1.719-3.522c0.146-0.749,0.219-1.747,1.719-1.247
	C62.5,81.438,63.823,84.354,63.823,84.354z"/>
<path fill="#77675C" stroke="#313131" stroke-linejoin="round" stroke-miterlimit="10" d="M77.84,73.605
	c0,0,7.408-4.25,17.075-0.959c1.935-0.854,0.602-2.312,0.602-2.312s-7.75-5.125-18.167,0.184
	C75.641,71.641,77.84,73.605,77.84,73.605z"/>
<path opacity="0.3" fill="#313131" d="M129.516,75.23c0,0-7.408-4.25-17.075-0.959c-1.935-0.854-0.602-2.312-0.602-2.312
	s7.875-3.625,18.207,0.625C131.754,73.707,129.516,75.23,129.516,75.23z"/>
<path fill="#77675C" stroke="#313131" stroke-linejoin="round" stroke-miterlimit="10" d="M129.516,73.605
	c0,0-7.408-4.25-17.075-0.959c-1.935-0.854-0.602-2.312-0.602-2.312s7.75-5.125,18.167,0.184
	C131.714,71.641,129.516,73.605,129.516,73.605z"/>
<path fill="none" stroke="#313131" stroke-linecap="round" stroke-linejoin="round" stroke-miterlimit="10" d="M109.948,89.516
	c-1.74-2.516-6.54-6.331-11.222-0.349"/>
<path fill="#FFFFFF" stroke="#313131" stroke-linecap="round" stroke-linejoin="round" stroke-miterlimit="10" d="M116.123,98.227
	c0,0-5.124,3.82-15.718,3.212c-4.022-0.271-9.182-2.021-9.182-2.021s0.405,7.905,16.372,6.602
	C112.781,105.491,116.298,101.305,116.123,98.227z"/>
<path fill="#77675C" stroke="#313131" stroke-linejoin="round" stroke-miterlimit="10" d="M68.594,76.615
	c0,0-5.392-31.863,3.906-39.406c6.625-5.375,32.766-16,61.792-0.042c10.056,0.481,6.125,26.458,5.396,40.479
	c-1.131-3.573,0.688-20.938-5.938-30.813c-38.757-6.727-60.625,1-60.625,1S70.375,53.708,68.594,76.615z"/>
<polygon fill="#1A6C9E" stroke="#313131" stroke-linecap="round" stroke-linejoin="round" stroke-miterlimit="10" points="
	99.125,131.771 111.37,131.365 116.5,134.708 106.438,167.583 102.25,162.333 94.105,134.958 "/>
<path fill="#345068" stroke="#313131" stroke-linecap="round" stroke-linejoin="round" stroke-miterlimit="10" d="M103.594,135.979
	c0,0-2.281,15.479-2.219,16.604c0.625,2,4.377,14.141,4.377,14.141l3.686-14.141l-2.125-16.688
	C107.313,135.896,104.344,134.228,103.594,135.979z"/>
<path fill="#345068" stroke="#313131" stroke-linecap="round" stroke-linejoin="round" stroke-miterlimit="10" d="M103.002,136.353
	c0,0,2.354,1.16,5.006-0.03c0.365-0.869,0.835-4.547,0.835-4.547s-2.25-2.599-7.031-0.179
	C102.225,133.427,103.002,136.353,103.002,136.353z"/>
<path fill="#313131" d="M93.586,100.132c0,0-0.273,1.714,2.539,2.357c-1.656,0.094-1.478,1.344-1.478,1.344
	s-2.647-0.917-2.939-3.958C92.375,99.781,93.586,100.132,93.586,100.132z"/>
<polygon fill="#FFFFFF" stroke="#313131" stroke-linejoin="round" stroke-miterlimit="10" points="130.875,174.313 156.958,167.583 
	157.983,204.393 130.875,202.826 "/>
<path fill="#313131" d="M114.063,99.615c0,0,0.001,1.625-1.688,2.375c1.25-0.144,1.234,1.031,1.234,1.031s2.234-1.938,2.141-4.063
	C115.125,99.177,114.063,99.615,114.063,99.615z"/>
<path opacity="0.3" fill="#313131" d="M104.431,167.229l-13.557-36.941l-2.366,1.076l1.184,15.031l-0.191,1.678
	c0,0,0.601,1.021-0.41,1.021c-2.358,0-4.271,1.912-4.271,4.271c0,2.359,1.912,4.271,4.271,4.271c2.351,0,4.256-1.9,4.269-4.248
	l9.767,15.446c0,0-0.416,4.625-0.489,6.188s0.886,32.484,0,35.648c0.614,0.039,1.239,0.289,1.239,0.289s0.832-30.68,0-35.938
	C103.895,173.517,104.431,167.229,104.431,167.229z"/>
<path fill="#5B5959" stroke="#313131" stroke-linecap="round" stroke-linejoin="round" stroke-miterlimit="10" d="M128.393,173.083
	c0,0,16.79-4.506,21.448-5.722s4.73,6.346,4.73,6.346l3.471,32.001l-29.542-0.997L128.393,173.083z"/>
<path fill="#FFFFFF" stroke="#313131" stroke-linecap="round" stroke-linejoin="round" stroke-miterlimit="10" d="M89.691,130.793
	l1.231,13.291l4.23-0.5l-1.398,4.49c0,0,9.478,18.116,11.975,21.635c0.491-8.083-5.838-16.676-10.292-41.691
	C93.496,128.933,89.691,130.793,89.691,130.793z"/>
<path fill="#FFFFFF" stroke="#313131" stroke-linecap="round" stroke-linejoin="round" stroke-miterlimit="10" d="M120.312,131.044
	l-0.269,14.91l-5.387-1.537l3.386,6c0,0-11.426,19.562-14.167,23.979c0.02-10.938,9.16-42.878,10.388-46.378
	C116.205,128.933,120.312,131.044,120.312,131.044z"/>
<path fill="#EAC4A7" stroke="#313131" stroke-linejoin="round" stroke-miterlimit="10" d="M138.927,209.063
	c0,0-0.958-1.261-1.666-3.873c-1.289-4.761,1.091-5.386,2.059-3.651c0.968,1.734,1.928,3.651,2.79,5.111
	c-1.446-2.183-3.308-6.257-1.755-7.681c2.086-1.912,2.269,1.144,4.375,4.678c2.106,3.532,0.828,1.27,0.828,1.27
	s-2.491-5.056-0.986-7.68c1.47-2.561,4.33,5.045,5.465,7.889c-1.135-2.844-1.85-5.618-0.736-7.951
	c1.114-2.334,2.651-1.349,3.364,2.479c0.963,5.172,1.668,6.264,3.877,6.056c0.302,1.715-1.876,4.979-5.227,3.02
	c-0.398,1.586-3.259,2.906-4.363,0.83c-0.581,1.293-3.074,1.649-4.108,0.025C141.755,210.119,141.133,211.484,138.927,209.063z"/>
<path fill="#2290D3" stroke="#313131" stroke-linecap="round" stroke-linejoin="round" stroke-miterlimit="10" d="M99.458,126.167
	c0,0,1.292,3.354,5.512,4.338c-0.79,1.25-5.908,7.266-5.908,7.266l-3.91-8.831C95.152,128.94,96.989,127.146,99.458,126.167z"/>
<path fill="#2290D3" stroke="#313131" stroke-linecap="round" stroke-linejoin="round" stroke-miterlimit="10" d="M110.507,125.458
	c0,0-0.632,3.5-4.778,5.004c0.79,1.25,5.625,6.809,5.625,6.809l3.302-8.763C114.656,128.508,113.305,125.833,110.507,125.458z"/>
<path fill="#FFFFFF" stroke="#313131" stroke-linecap="round" stroke-linejoin="round" stroke-miterlimit="10" d="M103.875,174.396
	c0,0,1.25,30.809,0,36.79"/>
<path fill="#FFFFFF" stroke="#313131" stroke-linecap="round" stroke-linejoin="round" stroke-miterlimit="10" d="M72.542,174.625
	c0,0,11.425,17.046,16.728,21.296c-1.72,3.75-3.9,6.595-6.729,8.472c-2.333-2.167-19.858-22.673-22-29.476"/>
<polygon opacity="0.3" fill="#313131" points="82.855,162.084 96.105,160.959 96.527,166.87 83.355,167.792 "/>
<path fill="#FFFFFF" stroke="#313131" stroke-linecap="round" stroke-linejoin="round" stroke-miterlimit="10" d="M89.27,195.921
	c0,0,1.605-2.775,1.917-4.275"/>
<polygon fill="#A5A2A0" stroke="#313131" stroke-linejoin="round" stroke-miterlimit="10" points="140.875,178.667 144.429,177.833 
	146.708,191.083 143.218,191.646 "/>
<polygon fill="#EDCC72" stroke="#313131" stroke-linejoin="round" stroke-miterlimit="10" points="84.048,160.834 97.298,159.709 
	97.721,165.62 84.548,166.542 "/>
<line fill="#EDCC72" stroke="#313131" stroke-linecap="round" stroke-linejoin="round" stroke-miterlimit="10" x1="87.486" y1="163.584" x2="93.361" y2="163.126"/>
<g>
	<path fill="#313131" d="M89.269,152.833c-0.502,0-0.936-0.378-0.993-0.89c-2.758-24.883,10.681-27.736,11.255-27.845
		c0.029,0.891-0.038,1.014,0.075,2.041c-0.507,0.103-11.883,2.659-9.341,25.583c0.061,0.549-0.335,1.043-0.884,1.104
		C89.343,152.832,89.306,152.833,89.269,152.833z"/>
</g>
<g>
	<path fill="#313131" d="M121.167,156.833c3.042-25.469-10.151-33.071-10.725-33.18c-0.029,0.891,0.038,1.014-0.075,2.041
		c0.507,0.103,11.341,8.048,8.799,30.973C119.106,157.216,121.106,157.344,121.167,156.833z"/>
</g>
<circle fill="#A5A2A0" stroke="#313131" stroke-linejoin="round" stroke-miterlimit="10" cx="89.27" cy="151.808" r="3.734"/>
<circle fill="#A5A2A0" stroke="#313131" stroke-linejoin="round" stroke-miterlimit="10" cx="89.27" cy="151.808" r="1.922"/>
<path fill="none" stroke="#313131" stroke-width="2" stroke-linecap="round" stroke-linejoin="round" stroke-miterlimit="10" d="
	M113,176.458c0,0-5.25-19,7.125-19.375c10,0.625,2.625,19.375,2.625,19.375"/>
<path fill="#E55F30" stroke="#313131" stroke-linecap="round" stroke-linejoin="round" stroke-miterlimit="10" d="M114.167,175.583
	c0,0-1.546,0.709-2.273,2.042c0.648,0.875,2.428,3.417,4.101,1.75S114.625,177.292,114.167,175.583z"/>
<path fill="#E55F30" stroke="#313131" stroke-linecap="round" stroke-linejoin="round" stroke-miterlimit="10" d="M121.648,175.792
	c0,0,1.546,0.417,2.273,1.75c-0.546,1.375-2.207,4.055-3.879,2.388S120.875,177.977,121.648,175.792z"/>
<path fill="#FFFFFF" stroke="#313131" stroke-linecap="round" stroke-linejoin="round" stroke-miterlimit="10" d="M94.375,192.271
	c0,0-2.063,9.063-9.875,14.875"/>
<polygon opacity="0.3" fill="#313131" points="128.542,188.583 133.792,204.393 128.542,204.393 "/>
<path opacity="0.3" fill="#313131" d="M99.605,122.516c0,0,0.374,3.521,0.181,4.294c0.379,0.576,2.881,3.707,5.516,3.755
	c0.426-0.104,5.023-1.514,5.204-5.107c-0.072-1.119-0.314-3.156-0.314-3.156S102.108,123.215,99.605,122.516z"/>
<path opacity="0.3" fill="#313131" d="M110.25,126.697c0,0,3.031,2.633,3.375,3.869s0.688-1.935,0.688-1.935l-3.469-3.517
	C110.844,125.115,111,125.904,110.25,126.697z"/>
<path opacity="0.3" fill="#313131" d="M104.337,28.766c0,0-14.879,2.984-18.962,7.567S104.208,41,113.458,44
	c-5.083-0.25-30.75-0.167-40.667,3.5c-0.048,1.372-4.371,18.932-4.352,28.133c-0.87-7.234-2.992-26.304,1.347-34.822
	C70.274,39.894,77.987,28.886,104.337,28.766z"/>
<path opacity="0.3" fill="#313131" d="M114,130.852c0,0,7.197,9.873,4.099,26.49c-0.697,0.198-7.036-0.133-8.161,8.679
	c-0.625,4.438,0.813,10.438,0.813,10.438l-0.469,0.656c0,0,0.875,4.411,4.219,2.815c-0.375-2.409-5.542-12.429-0.5-19.638
	c0.774-1.19,8.667-4.458,9.083,2.833s-1.462,10.542-1.462,10.542l-1.038-0.333c0,0-0.792,2.583-1.542,3.125
	s-0.084,3.542,1.271,2.708s3.753-7.536,4.396-11.583s0.624-9.125-4.396-10.5c0.479-4.25,1.25-20.167-5.656-27.542
	C114.333,129.958,114,130.852,114,130.852z"/>
<path opacity="0.3" fill="#313131" d="M137.375,201.833c0,0,0.938,7,4,6.5c0.938-0.25,2.545-0.762,3.054,0.025
	s1.612-1.213,2.279-0.963s2.917,1.563,3.729,0.063s2.89,2.721,5.507-1.733c0.867-0.058,0.68,3.65-3.278,3.275
	c-0.708-0.292-1.417-0.5-1.417-0.5s-1.469,3.468-4.026,1.463c-1.401,0.546-3.286,1.537-4.38-0.38
	C142.076,210.073,137.458,212.417,137.375,201.833z"/>
<path opacity="0.3" fill="#313131" d="M86.815,200.205c0,0-2.962,3.34-4.579,3.89c-18.611-21.418-21.454-28.511-21.454-28.511
	S74.542,195.921,86.815,200.205z"/>
<polygon opacity="0.3" fill="#313131" points="128.25,155 134.447,171.461 131.094,172.396 "/>
</svg>
