<?xml version="1.0" encoding="utf-8"?>
<!-- Generator: Adobe Illustrator 15.0.0, SVG Export Plug-In . SVG Version: 6.00 Build 0)  -->
<!DOCTYPE svg PUBLIC "-//W3C//DTD SVG 1.1//EN" "http://www.w3.org/Graphics/SVG/1.1/DTD/svg11.dtd">
<svg version="1.1" id="photographer" xmlns="http://www.w3.org/2000/svg" xmlns:xlink="http://www.w3.org/1999/xlink" x="0px"
	 y="0px" width="211.313px" height="229.417px" viewBox="0 0 211.313 229.417" enable-background="new 0 0 211.313 229.417"
	 xml:space="preserve">
<circle fill="none" stroke="#313131" stroke-miterlimit="10" cx="105.729" cy="106.22" r="105"/>
<circle opacity="0.2" fill="#FFFFFF" cx="104.218" cy="111.908" r="71.017"/>
<path fill="#EAC4A7" stroke="#313131" stroke-linejoin="round" stroke-miterlimit="10" d="M133.625,135.708l0.583,25.542l5.583,19
	l-5.75,3.417l-6.5-18.75c0,0-1.144-14.333-1.28-18.458C127.5,142.208,133.625,135.708,133.625,135.708z"/>
<path fill="#FFFFFF" stroke="#313131" stroke-linecap="round" stroke-linejoin="round" stroke-miterlimit="10" d="M104.137,121.146
	c0,0-19.195,2.19-26.695,7.69c0,0-1.174,0.726-1.941,1.528c-2.594,2.125-4.764,5.01-4.764,11.696
	c4.167,2.557,1.827,0.273,6.514,3.481c1.449,0.355,2.188,1.573,2.688,2.885c1.925,6.656,1.546,45.562,1.901,60.063
	c7.56,1.729,16.493,2.73,24.578,2.73c8.292,0,15.454-1.156,22.125-2.485c-0.176-10.62-3.752-39.99-2.28-62.276
	c7.614-5.44,7.364-10.75,7.364-10.75s-1.25-3.75-5.125-6.61C124.625,125.833,120.757,123.151,104.137,121.146z"/>
<path fill="#EAC4A7" stroke="#313131" stroke-miterlimit="10" d="M97.506,112.515c0,0,2.788,1.486,2.121,9.653
	c3.54,4.75,9.04,2.75,10.892-0.274c-0.5-6.333,0.903-9.378,0.903-9.378S103.589,114.348,97.506,112.515z"/>
<path fill="#EAC4A7" stroke="#313131" stroke-linejoin="round" stroke-miterlimit="10" d="M68.458,43.333l-0.023,27.098
	c0,0-7.06-2.181-8.393,5.486s5.917,11.042,8.507,8.264c0,5,4.667,32.333,36.667,32.333s34.761-30.958,34.761-30.958
	s1.593,0.944,5.053-0.973c3.741-2.073,3.628-13.4-2.645-13.104c-3.833,0.181-2.185,0.288-2.185,0.288l-1.45-31.308
	C138.75,40.458,104.458,21.667,68.458,43.333z"/>
<circle fill="#313131" cx="86.206" cy="72.308" r="1.417"/>
<path fill="#EAC4A7" stroke="#313131" stroke-linejoin="round" stroke-miterlimit="10" d="M138.461,173.876
	c0,0,4.645-0.216,7.08,3.866c5.088,8.53,4.73,14.56,0.448,15.175s-6.617,2.622-6.617,2.622s-4.015-2.051-1.46-4.379
	C140.053,189.797,141.088,184.387,138.461,173.876z"/>
<circle fill="#313131" cx="123.873" cy="72.308" r="1.417"/>
<path fill="none" stroke="#313131" stroke-linecap="round" stroke-linejoin="round" stroke-miterlimit="10" d="M96.787,82.271
	c0,0,2.804,4.125,6.494,4.125c2.99,0,5.969-1.031,7.372-5.042"/>
<path fill="#EAC4A7" stroke="#313131" stroke-linecap="round" stroke-linejoin="round" stroke-miterlimit="10" d="M64.695,74.706
	c-2.237,1.627-0.937,4.847,0,5.877"/>
<path fill="#EAC4A7" stroke="#313131" stroke-linecap="round" stroke-linejoin="round" stroke-miterlimit="10" d="M142.188,75.708
	c2.313,0.815,2.014,5.917,0,6.208"/>
<path fill="none" stroke="#313131" stroke-width="0.5" stroke-linecap="round" stroke-linejoin="round" stroke-miterlimit="10" d="
	M102.518,127.804"/>
<path opacity="0.3" fill="#313131" d="M110.653,81.354c0,0,0.878,5.604-5.715,7.042c-3.755,0.819-7.875-2-8.15-5.844
	C99.844,86.552,106.469,89.333,110.653,81.354z"/>
<path opacity="0.3" fill="#313131" d="M99.771,116.514c0,0,0.115,5.528,0.083,5.715s1.891,2.304,4.774,2.772
	c4.289-0.168,4.716-1.739,5.747-3.293c-0.07-1.306,0-5.481,0-5.481S107.291,117.414,99.771,116.514z"/>
<path fill="#5E5957" stroke="#313131" stroke-linejoin="round" stroke-miterlimit="10" d="M111.993,18.833
	c-10.426-1.703-40.771-1.004-38.5,18.5c-8.021,5.621-6.941,9.296-6.879,13.75c0.125,9,0.692,22.438,0.692,22.438
	c-0.445,10.813,2.82,23.438,5.32,27.891s10.625,15.796,32.607,15.921S135,103.458,137.75,96.208
	c2.748-7.244,2.058-20.267,2.057-20.291c0.375-3.774,0.666-16.47,0.818-25.417C140.807,39.875,137.243,22.958,111.993,18.833z
	 M120.25,86.958c-8.875,0.25-15.786,3.625-15.786,3.625s-6.714-1.625-17.589-1.295s-16.917-9.705-16.917-9.705l-0.167-2.5
	l1.701-26.75c0,0-0.25-8.125,7.461-9.756c19.361,12.427,32.664,7.256,52.289,0.131c7.817,8.917,0.924,11.334,6.049,36.937
	c-0.001,0.002,0.001-0.002,0,0C138.395,84.119,129.125,86.708,120.25,86.958z"/>
<path fill="#2F2D2C" stroke="#313131" stroke-linejoin="round" stroke-miterlimit="10" d="M90.933,95.771
	c0,0,16.375,3.813,27.063-1.313c-0.188,1.563-4.589,8.335-13.641,8.21S91.558,97.583,90.933,95.771z"/>
<path fill="#FFFFFF" stroke="#313131" stroke-linecap="round" stroke-linejoin="round" stroke-miterlimit="10" d="M92.972,96.171
	c0.304,0.827,0.408,1.869,2.937,2.394c2.716,0.564,11.466,1.404,17.216-0.439c0.804-0.268,1.728-1.36,2.176-2.598
	C108.646,97.712,98.875,97.23,92.972,96.171z"/>
<path fill="#31353B" stroke="#313131" stroke-linejoin="round" stroke-miterlimit="10" d="M119.041,197.43l7.291,17.905
	c0,0,0.853,2.806,2.497,2.099s13.083-5.17,14.313-5.729c1.477-0.67,0.42-2.305,0.42-2.305l-8.432-20.63
	C135.129,188.77,119.725,192.908,119.041,197.43z"/>
<path fill="#41464F" stroke="#313131" stroke-linejoin="round" stroke-miterlimit="10" d="M122.091,212.495l5.054,12.232
	c0,0,1.126,3.706,3.298,2.772c2.172-0.935,17.282-6.83,18.906-7.567c1.951-0.886,0.014-4.237,0.014-4.237l-4.838-11.73
	c0,0-1.745-1.152-3.715-1.306c-4.224,1.646-12.346,4.82-17.174,6.776C123.094,210.655,122.861,210.986,122.091,212.495z"/>
<path fill="#FFCF4A" d="M87.125,143c0,0,16.905-3.713,33.39-0.94c-0.015,3.523,1.958,63.798,1.958,63.798S95,206.333,88.25,205.083
	C88.125,201.458,87.25,151.728,87.125,143z"/>
<path fill="#FFFFFF" stroke="#313131" stroke-linecap="round" stroke-linejoin="round" stroke-miterlimit="10" d="M104.354,102.668
	c5.398,0.075,9.129-2.303,11.313-4.566c-1.004-0.458-1.809-0.385-2.354-0.06c-5.292,2.522-14.798,1.056-17,0.708
	c-1.064-0.168-1.178,0.971-1.351,1.407C97.096,101.504,100.145,102.61,104.354,102.668z"/>
<path fill="#31353B" stroke="#313131" stroke-linejoin="round" stroke-miterlimit="10" d="M131.351,171.782
	c0,0-17.578,4.026-26.6,9.1c-6.108,3.195-3.782,6.671-2.784,9.115c0.998,2.443,4.288,9.539,4.288,9.539s3.041,8.658,8.27,6.578
	c5.229-2.082,6.926-2.684,6.926-2.684L131.351,171.782z"/>
<path fill="#41464F" stroke="#313131" stroke-linejoin="round" stroke-miterlimit="10" d="M131.972,171.559l-20.924,7.067
	c0,0-3.875,1.675-0.94,7.236c2.936,5.561,3.571,9.022,3.571,9.022s2.481,10.529,8.833,7.845c3.749-1.584,2.113-4.865,3.619-5.878
	c6.949-4.673,13.102-6.601,13.102-6.601s5.871-1.854,3.862-6.179c-2.008-4.325-4.634-10.196-4.634-10.196
	S136.979,169.758,131.972,171.559z"/>
<path fill="#676B72" stroke="#313131" stroke-linejoin="round" stroke-miterlimit="10" d="M119.656,195.177
	c0,0-1.813,0.313-1.719,1.875s1.094,3.406,3.313,2.781s1.875-2.563,1.75-3S122.375,194.646,119.656,195.177z"/>
<path fill="#41464F" stroke="#313131" stroke-linejoin="round" stroke-miterlimit="10" d="M116.018,178.833
	c0,0-2.37,0.408-2.247,2.451c0.123,2.042,1.43,4.453,4.331,3.636c2.9-0.817,2.451-3.35,2.288-3.922
	C120.226,180.426,119.572,178.138,116.018,178.833z"/>
<path fill="#41464F" stroke="#313131" stroke-linejoin="round" stroke-miterlimit="10" d="M119.575,175.747l5.925,10.837
	c0,0,1.447,2.625,1.13,9.938"/>
<path fill="#41464F" stroke="#313131" stroke-linejoin="round" stroke-miterlimit="10" d="M127.236,172.808l5.364,9.811
	c0,0,1.447,2.625,1.13,9.938"/>
<path fill="#41464F" stroke="#313131" stroke-linejoin="round" stroke-miterlimit="10" d="M125.731,187.136
	c0,0,4.66,2.603,7.464-2.693"/>
<path fill="#41464F" stroke="#313131" stroke-linejoin="round" stroke-miterlimit="10" d="M130.444,227.5
	c0,0-0.192,2.084,3.182,0.709s14.812-6.063,14.812-6.063s1.954-0.652,1.102-2.326c-1.415-0.361-17.381,5.371-19.335,7.755"/>
<path fill="#41464F" stroke="#313131" stroke-linejoin="round" stroke-miterlimit="10" d="M99.643,121.961
	c0,0-6.383,16.372,0.049,41.997c3.561,13.014,5.622,14.745,5.622,14.745l-4.623,2.63c0,0-5.498-10-7.72-19.75
	s-2.8-30.652,2.653-40.438c1.881-3.375,2.712-4.254,2.712-4.254l1.214,0.14L99.643,121.961z"/>
<path fill="#EAC4A7" stroke="#313131" stroke-linejoin="round" stroke-miterlimit="10" d="M78.346,146.055
	c0,0-0.971,16.534-0.221,21.406c1.875,1.998,13.306,12.293,16.056,14.418c1.75-2.25,4.23-3.826,6.511-4.202
	c3.177-0.524,6.402-2.563,6.402-2.563s2.656,2.844,0.031,5.063c-3.282,2.774-5.167,4.016-5.167,4.016s0.5,7.682,8.417,11.367
	c3.906,1.818,2.595,4.023,1.047,4.773c-2.047-0.375-1.39,2.482-4.256,1.875s-3.543,0.93-4.75,0.292s-7.792-2.042-10.542-11.167
	c-4.125-5.625-21.5-19.551-21.5-19.551s-1.764-9.847,0.361-29.722C74.708,142.061,77.846,144.555,78.346,146.055z"/>
<path fill="#41464F" stroke="#313131" stroke-linejoin="round" stroke-miterlimit="10" d="M110.519,121.893
	c0,0,8.106,5.815,4.106,17.315s8.205,33.246,9.457,34.457c1.536-0.424,4.46-1.305,4.46-1.305s-11.76-19.943-10.546-29.11
	s5.737-17.079-7.525-26.171C110.345,119.208,110.375,119.49,110.519,121.893z"/>
<path opacity="0.5" fill="#313131" d="M113.633,19.128c0,0-18.679-3.952-28.843,6.21s10.25,13.121,18.792,10.371
	s12.084-2.143,12.084-2.143s-9.5,3.268-15.896,6.768s7.725,7.862,27.352,1.869c-9.099,3.084-30.09,11.37-48.169-1.625
	c-0.579-0.619-7.003,1.899-7.441,9.11c-1.221,4.729-4.638,22.62-4.638,22.62l-0.343-26.391c0,0,1.87-5.922,6.439-8.211
	C73.497,33.379,72.807,14.339,113.633,19.128z"/>
<path opacity="0.3" fill="#313131" d="M73.356,142.427c0,0-2.647,14.407-1.064,26.907c0.75,0.75,16.216,12.188,19.024,17.802
	c0.809,1.365,4.225,12.615,13.559,14.615c-1.04,0.67-1.333,1.083-1.333,1.083s-4.959-0.971-7.875-5.041
	c-2.916-4.071-3.417-6.417-3.417-6.417s-17.278-16.812-21.514-19.593c-0.486-3.782-2.194-10.449,0.389-29.574
	C71.723,142.113,72.875,142.282,73.356,142.427z"/>
<path fill="none" stroke="#676B72" stroke-linejoin="round" stroke-miterlimit="10" d="M96.563,124.708c0,0-1.217,2.208-1.717,9.208
	"/>
<path fill="none" stroke="#676B72" stroke-linejoin="round" stroke-miterlimit="10" d="M94.283,145.372
	c0,0-0.354,3.741,0.562,10.295"/>
<path fill="none" stroke="#676B72" stroke-linejoin="round" stroke-miterlimit="10" d="M96.958,165c0,0,0.25,3.083,3.167,9.417"/>
<path fill="none" stroke="#676B72" stroke-linejoin="round" stroke-miterlimit="10" d="M112.945,121.146
	c0,0,3.794,3.438,4.196,7.938"/>
<path fill="none" stroke="#676B72" stroke-linejoin="round" stroke-miterlimit="10" d="M117.141,138.458
	c0,0-2.516,4.25-0.552,11.188"/>
<path fill="none" stroke="#676B72" stroke-linejoin="round" stroke-miterlimit="10" d="M118.875,157.5c0,0,3.083,8.245,4.25,9.873"
	/>
<path opacity="0.3" fill="#313131" d="M108.625,123.75c0,0,5.875,2.708,5.141,17.511c4.234-10.052-0.187-17.558-3.247-19.368
	C109.875,123,108.625,123.75,108.625,123.75z"/>
<path opacity="0.3" fill="#313131" d="M101.625,124.167c0,0-2.375,2.292-4.208,9.667c0.388-2.957,1.375-9.938,2.354-11.188
	C100.313,123.333,101.625,124.167,101.625,124.167z"/>
<path opacity="0.3" fill="#313131" d="M139.708,84.25l-2.011,5.771c0,0-3.51,19.938-27.321,24.479c-2.375,0.188-7.081,0.318-9.917,0
	c-26.25-3.167-29.723-22.542-29.723-22.542l-3.025-9.106c2.664,23.168,12.561,30.689,29.858,33.772
	c12.985,2.314,21.333-1.194,24.688-3.087C131.848,108.935,140.292,96.75,139.708,84.25z"/>
<line fill="#41464F" stroke="#313131" stroke-linecap="round" stroke-linejoin="round" stroke-miterlimit="10" x1="114.175" y1="179.895" x2="117.141" y2="182.052"/>
<path fill="none" stroke="#313131" stroke-width="0.5" stroke-linejoin="round" stroke-miterlimit="10" d="M120.041,195.117
	c0,0-1.274,0.872-1,2.488c0.187,1.104,0.736,2.178,2.473,2.141"/>
<path opacity="0.3" fill="#313131" d="M128.79,144.41c0,0,1.787,17.007,2.561,19.007s2.774,7.686,2.774,7.686l-3.903,0.948
	l-2.681-7.134l-0.866-18.25L128.79,144.41z"/>
<path opacity="0.3" fill="#313131" d="M141.854,81.646c0,0,1.957,1.207,2.27-2.918c-0.146-0.749,0.396-3.126-2.437-3.019
	C143.252,80.656,141.854,81.646,141.854,81.646z"/>
<path opacity="0.6" fill="#313131" d="M137.485,203.957c0,0-13.423,7.252-12.923,8.564s4.9,10.375,4.9,10.375s0.589,2,4.313,0.563
	s10.037-3.938,12.099-3.313c-1.625,0.688-14.699,6.75-16.412,7.25c-1.169-0.532-1.9-2.5-1.9-2.5l-5.31-12.012l1.384-3.449
	L137.485,203.957z"/>
<path opacity="0.6" fill="#313131" d="M126.675,173.665c0,0,8.7,14.856-2.113,10.293c0.626,2.056,1.168,2.813,1.168,2.813
	s4.884,3.093,7.295-2.329c-0.426-1.823-5.628-11.338-5.628-11.338L126.675,173.665z"/>
<path opacity="0.6" fill="#313131" d="M122.473,205.859c0,0,3.84-0.838,5.027-4.4s9.811-7.352,9.811-7.352l-1.154-2.53
	c0,0-9.352,4.15-10.025,5.275s-0.416,5.614-4.68,6.579C121.938,204.083,122.473,205.859,122.473,205.859z"/>
<path fill="#EAC4A7" stroke="#313131" stroke-linecap="round" stroke-linejoin="round" stroke-miterlimit="10" d="M139.333,174.25
	c0,0-3.125,1.497-3.417,7.5c-0.121,2.492-2.813,3.688,0.656,5.375s3.969-5.352,5.844-6.332"/>
<path fill="none" stroke="#313131" stroke-width="0.5" stroke-linecap="round" stroke-linejoin="round" stroke-miterlimit="10" d="
	M137.311,183.375c0,0,1.731,0.417,1.043,1.813"/>
<path fill="none" stroke="#313131" stroke-width="0.5" stroke-linecap="round" stroke-linejoin="round" stroke-miterlimit="10" d="
	M103.82,177.042c0,0,0.389,1.191,1.184,0.708c0.905-0.549,1.413-1.146,1.413-1.146"/>
<path fill="none" stroke="#313131" stroke-width="0.5" stroke-linecap="round" stroke-linejoin="round" stroke-miterlimit="10" d="
	M127.5,93.521c0.813,0.688,1.042,1.188,1.042,1.188"/>
<path fill="none" stroke="#313131" stroke-width="0.5" stroke-linecap="round" stroke-linejoin="round" stroke-miterlimit="10" d="
	M131.438,89.231c0.813,0.688,1.042,1.188,1.042,1.188"/>
<path fill="none" stroke="#313131" stroke-width="0.5" stroke-linecap="round" stroke-linejoin="round" stroke-miterlimit="10" d="
	M127.5,98.35c0.813,0.688,1.042,1.188,1.042,1.188"/>
<path fill="none" stroke="#313131" stroke-width="0.5" stroke-linecap="round" stroke-linejoin="round" stroke-miterlimit="10" d="
	M85.68,93.514c-0.416,0.98-0.825,1.347-0.825,1.347"/>
<path fill="none" stroke="#313131" stroke-width="0.5" stroke-linecap="round" stroke-linejoin="round" stroke-miterlimit="10" d="
	M80.537,98.864c-0.416,0.98-0.825,1.347-0.825,1.347"/>
<path fill="none" stroke="#313131" stroke-width="0.5" stroke-linecap="round" stroke-linejoin="round" stroke-miterlimit="10" d="
	M83.969,102.39c-0.246,0.508-0.492,0.673-0.492,0.673"/>
<path fill="none" stroke="#313131" stroke-width="0.5" stroke-linecap="round" stroke-linejoin="round" stroke-miterlimit="10" d="
	M86.693,100.456c-0.492,0.472-0.492,0.673-0.492,0.673"/>
<path fill="none" stroke="#313131" stroke-width="0.5" stroke-linecap="round" stroke-linejoin="round" stroke-miterlimit="10" d="
	M90.097,105.884c-0.492,0.472-0.492,0.673-0.492,0.673"/>
<path fill="none" stroke="#313131" stroke-width="0.5" stroke-linecap="round" stroke-linejoin="round" stroke-miterlimit="10" d="
	M76.784,93.514c-0.492,0.472-0.492,0.673-0.492,0.673"/>
<path fill="none" stroke="#313131" stroke-width="0.5" stroke-linecap="round" stroke-linejoin="round" stroke-miterlimit="10" d="
	M124.701,102.569c-0.061,0.679,0.072,0.831,0.072,0.831"/>
<path fill="none" stroke="#313131" stroke-width="0.5" stroke-linecap="round" stroke-linejoin="round" stroke-miterlimit="10" d="
	M122.429,96.975c-0.061,0.679,0.072,0.831,0.072,0.831"/>
<path fill="none" stroke="#313131" stroke-width="0.5" stroke-linecap="round" stroke-linejoin="round" stroke-miterlimit="10" d="
	M97.389,110.003c-0.061,0.679,0.072,0.831,0.072,0.831"/>
<path fill="none" stroke="#313131" stroke-width="0.5" stroke-linecap="round" stroke-linejoin="round" stroke-miterlimit="10" d="
	M103.711,105.469c-0.061,0.679,0.072,0.831,0.072,0.831"/>
<path fill="none" stroke="#313131" stroke-width="0.5" stroke-linecap="round" stroke-linejoin="round" stroke-miterlimit="10" d="
	M115.015,103.4c-0.061,0.679,0.072,0.831,0.072,0.831"/>
<path fill="none" stroke="#313131" stroke-width="0.5" stroke-linecap="round" stroke-linejoin="round" stroke-miterlimit="10" d="
	M112.917,110.003c-0.061,0.679,0.072,0.831,0.072,0.831"/>
<path opacity="0.3" fill="#313131" d="M98.54,47.93c0,0-7.665,1.28-18.415-2.596c-2.25-0.876-6.25,2.499-7.125,8.999
	s-2.341,9.104-2.341,9.104s-0.824-19.948,5.633-21.901c1.083-0.328,2.661-0.958,2.661-0.958S83.375,45.083,98.54,47.93z"/>
</svg>
