<?xml version="1.0" encoding="utf-8"?>
<!-- Generator: Adobe Illustrator 15.0.0, SVG Export Plug-In . SVG Version: 6.00 Build 0)  -->
<!DOCTYPE svg PUBLIC "-//W3C//DTD SVG 1.1//EN" "http://www.w3.org/Graphics/SVG/1.1/DTD/svg11.dtd">
<svg version="1.1" id="teacher" xmlns="http://www.w3.org/2000/svg" xmlns:xlink="http://www.w3.org/1999/xlink" x="0px" y="0px"
	 width="211.313px" height="221.333px" viewBox="0 0 211.313 221.333" enable-background="new 0 0 211.313 221.333"
	 xml:space="preserve">
<circle fill="none" stroke="#313131" stroke-miterlimit="10" cx="105.729" cy="106.22" r="105"/>
<circle opacity="0.2" fill="#FFFFFF" cx="104.218" cy="111.658" r="71.017"/>
<path fill="#FFFFFF" stroke="#313131" stroke-linecap="round" stroke-linejoin="round" stroke-miterlimit="10" d="M128.685,134.852
	c-7.625-3.181-17.263-7.018-24.548-7.706c0,0-18.449,3.875-28.324,9.5c-15.625,14.438-22.563,17.75-28.875,32.25
	c3.833,3.5,14.521,11.813,14.521,11.813s3.625-6.179,4.792-7.688c-3.256-0.593-5.333-6.668-5.333-6.668s13.521-12.144,17.896-14.644
	c1.188,7.625,2.671,42.281,3.026,56.781c7.56,1.729,16.493,2.73,24.578,2.73c8.292,0,15.454-1.156,22.125-2.485
	c-0.176-10.62,0.191-33.871-0.833-57.318c11.725,5.479,18.086,11.25,18.086,11.25s-3.544,7.324-5.878,9.666
	c1.167,1.509,4.152,6.978,4.152,6.978s11.863-12.744,13.973-18.728C146.625,146.5,130.017,136.78,128.685,134.852z"/>
<path fill="#EAC4A7" stroke="#313131" stroke-miterlimit="10" d="M97.506,118.515c0,0,2.788,1.486,2.121,9.653
	c2.544-0.657,4.248,2.072,5.717,4.3c1.328-1.978,2.745-3.995,5.175-4.575c-0.5-6.333,0.903-9.378,0.903-9.378
	S103.589,120.348,97.506,118.515z"/>
<path fill="#EAC4A7" stroke="#313131" stroke-linejoin="round" stroke-miterlimit="10" d="M72.375,49.833l-3.94,26.598
	c0,0-9.541-0.568-8.894,6.508c0.917,10.019,7,10.811,9.007,7.241c0,5,0.201,32.047,36.667,32.333
	c36.169,0.284,34.761-30.958,34.761-30.958s1.317,2.493,4.371,1.402c4.667-1.667,9.111-16.067-1.847-15.625
	c-2.198,0.089-2.813,0.313-2.813,0.313L133.958,48C133.958,48,108.375,28.167,72.375,49.833z"/>
<circle fill="#313131" cx="86.792" cy="79.15" r="1.417"/>
<circle fill="#313131" cx="121.04" cy="78.724" r="1.417"/>
<path fill="#EAC4A7" stroke="#313131" stroke-linecap="round" stroke-linejoin="round" stroke-miterlimit="10" d="M65.708,82
	c-3.114-0.453-0.937,3.969,0,5"/>
<path fill="#EAC4A7" stroke="#313131" stroke-linecap="round" stroke-linejoin="round" stroke-miterlimit="10" d="M142.5,81.625
	c2.917-1.042,1.963,3.523,0,5.729"/>
<path fill="none" stroke="#313131" stroke-width="0.5" stroke-linecap="round" stroke-linejoin="round" stroke-miterlimit="10" d="
	M102.518,133.804"/>
<path opacity="0.3" fill="#313131" d="M142.042,87.354c0,0,1.993-1.292,2.306-5.417c-0.146-0.749-0.347-0.812-1.847-0.312
	C142.75,86.333,142.042,87.354,142.042,87.354z"/>
<polygon fill="#E55A5A" stroke="#313131" stroke-linecap="round" stroke-linejoin="round" stroke-miterlimit="10" points="
	100.542,130.708 99.333,131.875 104.464,140.104 106.563,140.229 111.72,131.208 110.208,130.188 105.422,138.25 "/>
<path opacity="0.3" fill="#313131" d="M65.708,86.625c0,0-0.843,0.849-1.156-3.276c0.146-0.749,0.219-1.747,1.719-1.247
	C66.021,86.81,65.708,86.625,65.708,86.625z"/>
<path opacity="0.3" fill="#313131" d="M78.167,69.319c0,0,7.583-1.248,12.208-0.813C91.5,67.132,92,65.882,92,65.882
	s-3.919-1.512-14.25,0.3C76.042,67.305,78.167,69.319,78.167,69.319z"/>
<path fill="#444444" stroke="#313131" stroke-linejoin="round" stroke-miterlimit="10" d="M78.167,67.819
	c0,0,7.583-1.248,12.208-0.813C91.5,65.632,92,64.382,92,64.382s-3.919-1.512-14.25,0.3C76.042,65.805,78.167,67.819,78.167,67.819z
	"/>
<path opacity="0.3" fill="#313131" d="M128.833,72.083c0,0-7.583-1.248-12.208-0.813c-1.125-1.375-1.625-2.625-1.625-2.625
	s3.919-1.512,14.25,0.3C130.958,70.069,128.833,72.083,128.833,72.083z"/>
<path fill="#444444" stroke="#313131" stroke-linejoin="round" stroke-miterlimit="10" d="M128.833,70.583
	c0,0-7.583-1.248-12.208-0.813c-1.125-1.375-1.625-2.625-1.625-2.625s3.919-1.512,14.25,0.3
	C130.958,68.569,128.833,70.583,128.833,70.583z"/>
<path fill="none" stroke="#313131" stroke-linecap="round" stroke-linejoin="round" stroke-miterlimit="10" d="M109.948,89.516
	c-2.083,3.458-3.323,9.526-9.365,0.88"/>
<path opacity="0.3" fill="#313131" d="M100.583,90.396c0,0,1.685,6.438,5.073,6.438s4.442-4.942,4.63-7.317
	C105.942,96.36,105.435,95.958,100.583,90.396z"/>
<path opacity="0.3" fill="#313131" d="M102.311,111.75c0,0-0.434,2.476,4.029,1.984c2.028-0.224,2.877-1.23,2.358-2.064
	c-0.705-0.846-1.191-0.249-2.519-0.512C103.321,110.59,102.447,110.554,102.311,111.75z"/>
<path opacity="0.3" fill="#313131" d="M110.375,136.708l1.345-5.778l-2.231-1.467c0.311-0.609,0.541-1.234,0.886-1.755
	c-0.07-1.306,0-5.481,0-5.481s-3.084,1.186-10.604,0.287c0,0,0.115,5.528,0.083,5.715c-0.006,0.036,0.076,0.175,0.23,0.38
	l-3.021,1.318l3.497,7.226l-0.09,0.222l1.75,5.365l0.656,0.125l-4.75,68.031l8.5-0.146l-1.406-67.292l-1.265-7.41l1.468-0.215
	L110.375,136.708z"/>
<path fill="#FFFFFF" stroke="#313131" stroke-linecap="round" stroke-linejoin="round" stroke-miterlimit="10" d="M99.458,126.167
	c0,0,2.432,2.071,3.917,3.51c-0.79,1.25-3.625,8.344-3.625,8.344l-5.672-8.147C94.078,129.874,96.989,127.146,99.458,126.167z"/>
<path fill="#FFFFFF" stroke="#313131" stroke-linecap="round" stroke-linejoin="round" stroke-miterlimit="10" d="M110.507,125.458
	c0,0-0.991,2.609-3.476,4.469c0.79,1.25,4.323,7.344,4.323,7.344l4.324-7.262C115.678,130.009,113.305,125.833,110.507,125.458z"/>
<path fill="#FFFFFF" stroke="#313131" stroke-linecap="round" stroke-linejoin="round" stroke-miterlimit="10" d="M113.459,99.776
	c0,0-5.042,2.825-13.75,1.658c-4-0.5-7.527-2.393-7.527-2.393s-0.456,3.218,2.047,6.701c2.907,1.36,8.163,4.299,19.522-0.16
	C112.667,104,112.651,101.643,113.459,99.776z"/>
<path fill="#FFFFFF" stroke="#313131" stroke-width="0.5" stroke-linecap="round" stroke-linejoin="round" stroke-miterlimit="10" d="
	M92.559,101.435c0,0,7.01,6.67,19.666,1.701"/>
<path opacity="0.3" fill="#313131" d="M81.625,203.458c0,0,4.156,0.616,6.142-0.762c2.313-1.604,2.247-2.619,2.247-2.619
	l-8.389-0.857V203.458z"/>
<path opacity="0.3" fill="#313131" d="M128.42,200.262c0,0-5.034,1.175-7.089-0.098c-2.881-1.784-1.957-2.456-1.957-2.456
	l9.134-1.531L128.42,200.262z"/>
<path fill="#313131" d="M92.5,99.042c0,0,0.134,2.478,2.35,3.667c-0.235,0.021,0.074,0.328,0.144,0.524
	c-1.308,0.247-0.819,1.416-0.446,2.174C93.144,104.407,91.372,102.623,92.5,99.042z"/>
<path fill="#444444" stroke="#313131" stroke-linejoin="round" stroke-miterlimit="10" d="M68.594,76.615
	c0,0-9.714-45.545,33.453-46.379s38.266,34.051,37.537,48.072c-1.131-3.573-1.497-19.558-10.458-32.558
	c-4.039,5-22.336,14.284-40.75,8.385c-4.748-1.899-11.829-4.732-11.829-4.732S68.321,59.021,68.594,76.615z"/>
<path fill="#EAC4A7" stroke="#313131" stroke-linejoin="round" stroke-miterlimit="10" d="M66.667,173.333l9.708,8.79
	c0,0,0.539-4.883,4.261-4.632c0.159,4.409-1.007,9.792,4.739,9.551c5.756-0.242,7.792-1.083,8.458,0.875
	c0.52,1.526-6.333,2.833-6.333,2.833s6.271-0.909,6.583,1.125c0.5,3.25-7.833,2.929-6.75,2.917c5.5-0.063,8.294,3.493-0.623,3.368
	c3.625,1.063,3.79,1.674,2.79,2.716c-1.77,1.844-10.56,0.433-12.375-1.667c-1.417-1.638-1.491-7.191-1.413-10.292
	c-1.962-1-14.795-9.25-14.795-9.25"/>
<path fill="#FFFFFF" stroke="#313131" stroke-linecap="round" stroke-linejoin="round" stroke-miterlimit="10" d="M63.046,167.75
	c0,0-6.701,1.896-10.213,9.197c1.479,1.571,7.902,6.053,7.902,6.053s4.564-7.641,7.348-9.843
	C64.71,171.725,63.046,167.75,63.046,167.75z"/>
<path fill="#EAC4A7" stroke="#313131" stroke-linejoin="round" stroke-miterlimit="10" d="M142.527,170.824l-9.708,8.79
	c0,0-0.805-4.875-4.527-4.625c-0.159,4.409,1.273,9.785-4.473,9.543c-5.756-0.242-7.792-1.083-8.458,0.875
	c-0.52,1.526,6.333,2.833,6.333,2.833s-6.271-0.909-6.583,1.125c-0.5,3.25,7.833,2.929,6.75,2.917
	c-5.5-0.063-8.294,3.493,0.623,3.368c-3.625,1.063-3.79,1.674-2.79,2.717c1.77,1.844,10.56,0.432,12.375-1.668
	c1.417-1.638,1.491-7.191,1.413-10.292c1.962-1,14.795-9.25,14.795-9.25"/>
<path fill="#FFFFFF" stroke="#313131" stroke-linecap="round" stroke-linejoin="round" stroke-miterlimit="10" d="M142.481,166.353
	c0,0,6.701,1.896,10.213,9.197c-1.479,1.571-7.902,6.053-7.902,6.053s-4.139-7.273-6.922-9.475
	C141.243,170.695,142.481,166.353,142.481,166.353z"/>
<path fill="#EAC4A7" stroke="#313131" stroke-linecap="round" stroke-linejoin="round" stroke-miterlimit="10" d="M87.5,190.75
	c0,0-2.315,0.393-4.065,0.184"/>
<path fill="#EAC4A7" stroke="#313131" stroke-linecap="round" stroke-linejoin="round" stroke-miterlimit="10" d="M75.712,188.917
	c0,0-0.014-0.123,0.105-2.177"/>
<path fill="#EAC4A7" stroke="#313131" stroke-linecap="round" stroke-linejoin="round" stroke-miterlimit="10" d="M125.167,188.667
	c0,0-1.629-0.189-3.379-0.398"/>
<path fill="#EAC4A7" stroke="#313131" stroke-linecap="round" stroke-linejoin="round" stroke-miterlimit="10" d="M124.521,192.479
	c0,0-1.043-0.199-2.733-0.199"/>
<path fill="#EAC4A7" stroke="#313131" stroke-linecap="round" stroke-linejoin="round" stroke-miterlimit="10" d="M124.521,195.563
	c0,0-0.348,0.087-2.038,0.087"/>
<path fill="#EAC4A7" stroke="#313131" stroke-linecap="round" stroke-linejoin="round" stroke-miterlimit="10" d="M87.333,194.792
	c0,0-2.177,0-4.24,0"/>
<path fill="#EAC4A7" stroke="#313131" stroke-linecap="round" stroke-linejoin="round" stroke-miterlimit="10" d="M86.875,198.162
	c0,0-1.744-0.071-3.781-0.391"/>
<path opacity="0.3" fill="#313131" d="M58.781,169.521c0,0-4.114,1.219-5.948,4.063c0.51,0.5,1.042,0.813,1.042,0.813
	S58.5,169.615,58.781,169.521z"/>
<path opacity="0.3" fill="#313131" d="M138.61,174.37c0,0,3.292,5.4,3.763,6.557c0.513-0.326,1.407-1.023,1.407-1.023l-4.374-6.445
	L138.61,174.37z"/>
<path fill="#FFFFFF" stroke="#313131" stroke-linecap="round" stroke-linejoin="round" stroke-miterlimit="10" d="M84.383,157.68
	l0.532,10.128c0,0,8.922,0.192,12.951-0.349c0.259-2.313,0.259-10.563,0.259-10.563"/>
<path fill="#FFFFFF" stroke="#313131" stroke-linecap="round" stroke-linejoin="round" stroke-miterlimit="10" d="M84.045,153.714
	c0,0,7.04,0.292,14.08-0.443c0,1.875,0,4,0,4s-6.763,0.635-13.741,0.409C84.211,155.555,84.218,156.214,84.045,153.714z"/>
<path fill="none" stroke="#313131" stroke-linecap="round" stroke-linejoin="round" stroke-miterlimit="10" d="M96.327,77.19
	c0,0-0.039-4.843-3.388-4.574c-3.867,0.31-14.202,0.884-14.202,0.884s-3.748-0.124-3.517,4.435c0.23,4.559,0.54,7.004,0.54,7.004
	s0.075,4.013,4.149,3.551s13.222-0.903,13.222-0.903s3.613-0.028,3.613-2.792C96.745,83.742,96.96,84.533,96.327,77.19z"/>
<path fill="none" stroke="#313131" stroke-linecap="round" stroke-linejoin="round" stroke-miterlimit="10" d="M133.097,78.388
	c0,0,0.499-4.817-2.859-4.921c-3.877-0.121-14.212-0.697-14.212-0.697s-3.711-0.539-3.987,4.017c-0.277,4.556-0.24,7.021-0.24,7.021
	s-0.371,3.996,3.729,3.99c4.1-0.007,13.24,0.57,13.24,0.57s3.594,0.373,3.901-2.373C132.785,84.945,132.911,85.755,133.097,78.388z"
	/>
<path fill="none" stroke="#313131" stroke-miterlimit="10" d="M96.665,80.567c0,0,6.668-8.483,15.16-0.426"/>
<path opacity="0.3" fill="none" stroke="#313131" stroke-linecap="round" stroke-linejoin="round" stroke-miterlimit="10" d="
	M96.405,78.591c0,0-0.039-4.843-3.388-4.574c-3.867,0.31-14.202,0.884-14.202,0.884s-3.748-0.124-3.517,4.435
	c0.23,4.559,0.54,7.004,0.54,7.004s0.075,4.013,4.149,3.551s13.222-0.903,13.222-0.903s3.613-0.028,3.613-2.792
	C96.823,85.143,97.038,85.934,96.405,78.591z"/>
<path opacity="0.3" fill="none" stroke="#313131" stroke-linecap="round" stroke-linejoin="round" stroke-miterlimit="10" d="
	M133.175,79.789c0,0,0.499-4.817-2.859-4.921c-3.877-0.121-14.212-0.697-14.212-0.697s-3.711-0.539-3.987,4.017
	c-0.277,4.556-0.24,7.021-0.24,7.021s-0.371,3.996,3.729,3.99c4.1-0.007,13.24,0.57,13.24,0.57s3.594,0.373,3.901-2.373
	C132.863,86.346,132.989,87.156,133.175,79.789z"/>
<path opacity="0.3" fill="none" stroke="#313131" stroke-miterlimit="10" d="M96.743,81.968c0,0,6.668-8.483,15.16-0.426"/>
<path fill="#FFFFFF" stroke="#313131" stroke-linecap="round" stroke-linejoin="round" stroke-miterlimit="10" d="M75.813,136.646
	c0,0,2.375,4.875,2.563,7.563"/>
<path fill="#FFFFFF" stroke="#313131" stroke-linecap="round" stroke-linejoin="round" stroke-miterlimit="10" d="M128.685,134.852
	c0,0-0.311,7.482-0.644,8.482"/>
<path opacity="0.3" fill="#313131" d="M78.253,143.958c0,0-2.378-3.91-3.211-4.087c-1.333,0.99-13.595,9.524-13.595,9.524
	l14.365-12.125C75.813,137.271,77.792,141,78.253,143.958z"/>
<path fill="none" stroke="#313131" stroke-linecap="round" stroke-linejoin="round" stroke-miterlimit="10" d="M68.594,76.615
	c0,0,4.827,1.327,6.617,2.002"/>
<path fill="none" stroke="#313131" stroke-linecap="round" stroke-linejoin="round" stroke-miterlimit="10" d="M133.088,78.724
	c0,0,4.967-1.192,6.252-1.417"/>
<line fill="#EAC4A7" stroke="#313131" stroke-linecap="round" stroke-linejoin="round" stroke-miterlimit="10" x1="133.482" y1="186.407" x2="133.482" y2="183.417"/>
<polygon opacity="0.3" fill="#313131" points="95,129.542 99.333,134.333 102.518,129.542 103.22,129.948 99.708,137.271 
	94.5,129.917 "/>
<polygon opacity="0.3" fill="#313131" points="107.636,129.542 111.422,134.852 114.667,130.833 111.422,136.646 107.417,130.188 
	"/>
<path opacity="0.3" fill="#313131" d="M127.313,151.427v-3.281c0,0,15.5,7.202,18.375,13.938
	C143.688,160.708,133.063,153.99,127.313,151.427z"/>
<path fill="#E55A5A" stroke="#313131" stroke-linecap="round" stroke-linejoin="round" stroke-miterlimit="10" d="M106.828,141.02
	c0,0,5.772,52.907,4.481,72.814c-1.042,1.656-5.837,6.563-5.837,6.563l-5.838-6.558c0,0,4.973-65.546,4.409-72.963
	C104.511,139.098,106.914,140.026,106.828,141.02z"/>
<path opacity="0.6" fill="#313131" d="M102.455,30.229c0,0-20.747,1.771-17.08,11.354s25.823,10.916,41.537,6.25
	c-6.314,3.28-23.366,16.5-49.826,1.25c-6.543,5.833-8.71,23-8.71,23S60.867,30.958,102.455,30.229z"/>
<path fill="#E55A5A" stroke="#313131" stroke-linecap="round" stroke-linejoin="round" stroke-miterlimit="10" d="M103.303,141.545
	c0,0,2.145,1.056,4.561-0.027c0.333-0.792,0.761-4.143,0.761-4.143s-1.989-2.58-6.406-0.163
	C102.594,138.879,103.303,141.545,103.303,141.545z"/>
</svg>
