<?xml version="1.0" encoding="utf-8"?>
<!-- Generator: Adobe Illustrator 15.0.0, SVG Export Plug-In . SVG Version: 6.00 Build 0)  -->
<!DOCTYPE svg PUBLIC "-//W3C//DTD SVG 1.1//EN" "http://www.w3.org/Graphics/SVG/1.1/DTD/svg11.dtd">
<svg version="1.1" id="woman2" xmlns="http://www.w3.org/2000/svg" xmlns:xlink="http://www.w3.org/1999/xlink" x="0px" y="0px"
	 width="211.313px" height="213.833px" viewBox="0 0 211.313 213.833" enable-background="new 0 0 211.313 213.833"
	 xml:space="preserve">
<circle fill="none" stroke="#313131" stroke-miterlimit="10" cx="105.729" cy="106.22" r="105"/>
<circle opacity="0.2" fill="#FFFFFF" cx="104.218" cy="111.908" r="71.017"/>
<path fill="#313131" stroke="#313131" stroke-linejoin="round" stroke-miterlimit="10" d="M77.156,34.502
	c0,0-28.031,21.331-14.531,84.838c13.26,18.327,59.617,23.993,82.5-1.965c5-16.333,12.25-46.144-11.253-79.789
	C125.735,36.851,77.156,34.502,77.156,34.502z"/>
<path fill="#D1A084" stroke="#313131" stroke-linecap="round" stroke-linejoin="round" stroke-miterlimit="10" d="M104.137,121.146
	c0,0-19.845,6.854-24.595,10.688s-7,11.583-10.333,19.083c4.833,2.125,8.208,2.875,13.562,4.355
	c-0.257-4.398-0.429-5.473-0.771-8.938c1.188,7.625,2.125,28.336-3.984,61.19c8.484,2.622,20.316,3.696,28.4,3.696
	c8.292,0,15.454-1.156,22.125-2.485c-5.667-38.234-5.004-43.485-3.046-62.276c-0.484,4.685-0.526,3.727-0.899,9.61
	c5.966-2.298,11.881-5.167,11.881-5.167s-5.019-17.985-11.436-21.944C117.417,125.777,111.422,121.833,104.137,121.146z"/>
<path fill="#7C664E" stroke="#313131" stroke-linejoin="round" stroke-miterlimit="10" d="M97.506,112.515
	c0,0,2.788,1.486,2.121,9.653c5.164-1.334,6.102,0.869,10.892-0.274c-0.5-6.333,0.903-9.378,0.903-9.378
	S103.589,114.348,97.506,112.515z"/>
<path opacity="0.3" fill="#313131" d="M99.771,116.514c0,0,0.115,5.528,0.083,5.715s2.335-0.656,5.219-0.188
	c4.289-0.168,4.271,1.221,5.302-0.333c-0.07-1.306,0-5.481,0-5.481S107.291,117.414,99.771,116.514z"/>
<path fill="#7C664E" stroke="#313131" stroke-linejoin="round" stroke-miterlimit="10" d="M72,47.833l-3.511,22.598
	c0,0-9.51-1.945-8.551,5.777c1.188,9.563,7.25,10.5,8.665,7.972c5.022,18.884,17.939,32.333,36.667,32.333
	c28.481,0,34.761-30.958,34.761-30.958s2.761,1.903,5.345-0.056c3.408-2.584,4.583-15.639-2.181-14.667
	c-2.177,0.313-3.516,0.813-3.516,0.813l-1.304-25.688C138.375,45.958,107.875-0.292,72,47.833z"/>
<circle fill="#313131" cx="85.992" cy="74.141" r="1.417"/>
<circle fill="#313131" cx="123.659" cy="74.141" r="1.417"/>
<path fill="none" stroke="#313131" stroke-width="0.5" stroke-linecap="round" stroke-linejoin="round" stroke-miterlimit="10" d="
	M65.469,74.224c-2.781,0.151-1.76,5.922,0.578,5.641"/>
<path fill="none" stroke="#313131" stroke-width="0.5" stroke-linecap="round" stroke-linejoin="round" stroke-miterlimit="10" d="
	M141.688,75.958c2.917-1.042,3.338,3.825,1.375,6.031"/>
<path fill="none" stroke="#313131" stroke-width="0.5" stroke-linecap="round" stroke-linejoin="round" stroke-miterlimit="10" d="
	M102.518,127.804"/>
<path opacity="0.3" fill="#313131" d="M143.063,81.99c0,0,1.531-1.656,1.031-4.531c-0.146-0.749-0.754-2.047-2.254-1.547
	C143.656,77.958,143.063,81.99,143.063,81.99z"/>
<path opacity="0.3" fill="#313131" d="M66.25,79.865c0,0-2.208,0.24-2.458-3.073c0-1.417,0.677-2.651,1.864-2.643
	C64.313,77.049,66.25,79.865,66.25,79.865z"/>
<path fill="none" stroke="#313131" stroke-linecap="round" stroke-linejoin="round" stroke-miterlimit="10" d="M97.886,93.493
	c0,0,2.696,2.063,8.667,1.813c3.604,0,6.313-1.021,6.313-1.021"/>
<path fill="none" stroke="#313131" stroke-linecap="round" stroke-linejoin="round" stroke-miterlimit="10" d="M99.784,97.904
	c0,0,2.542,2.218,4.821,1.401c3-1.074,6.813,1.063,7.813-2.25"/>
<path fill="none" stroke="#313131" stroke-linecap="round" stroke-linejoin="round" stroke-miterlimit="10" d="M109.238,83.996
	c-0.548,1.339-4.074,3.97-8.824,0.642"/>
<polygon opacity="0.3" fill="#313131" points="97.063,123.927 102.219,128.865 105.073,125.521 107.97,128.958 111.72,124.931 
	107.384,121.146 105.073,122.235 102.518,121.146 "/>
<path opacity="0.3" fill="#313131" d="M100.414,84.784c0,0,1.5,3.479,4.167,3.479c2.15,0,4.74-1.892,4.927-4.267
	C108.852,84.965,104.998,88.638,100.414,84.784z"/>
<path opacity="0.3" fill="#313131" d="M100.582,98.75c0,0,0.845,3.242,5.314,2.805s5.374-1.742,5.311-3.117
	c-1.701,0.396-4.685,0.542-5.311,0.479S103.448,99.836,100.582,98.75z"/>
<path fill="#FFFFFF" stroke="#313131" stroke-linecap="round" stroke-linejoin="round" stroke-miterlimit="10" d="M99.827,119.458
	c0,0,3.973,2.271,5.246,2.583c-0.79,1.25-3.077,6.354-3.077,6.354l-5.473-4.469C96.523,123.927,97.028,119.833,99.827,119.458z"/>
<path opacity="0.3" fill="#313131" d="M68.875,70.833c25.313-14.375,40.633-4.813,54.313-20.75
	c5.129,12.091,11.021,18.103,16.438,22c1.083-0.397,0.583-5.722,0.583-5.722S131.942,47.5,123.659,45S60.875,63.146,68.875,70.833z"
	/>
<path fill="#FFFFFF" stroke="#313131" stroke-linecap="round" stroke-linejoin="round" stroke-miterlimit="10" d="M110.507,119.458
	c0,0-3.859,2.229-5.132,2.542c0.79,1.25,2.963,6.396,2.963,6.396l5.414-4.584C113.751,123.812,113.305,119.833,110.507,119.458z"/>
<path fill="#313131" stroke="#313131" stroke-linejoin="round" stroke-miterlimit="10" d="M105.073,22.958
	c0,0-40.986-2.55-36.584,47.473c10.803-12.677,51.322-7.68,55.17-26.846c4.224,16.582,13.103,23.783,16.02,28.061
	C144.347,56.833,139.625,25.947,105.073,22.958z"/>
<path fill="#7C664E" stroke="#313131" stroke-linejoin="round" stroke-miterlimit="10" d="M72.563,152.365l-5.688,22.219
	l16.765,21.642c0,0,2.829-1.548,4.298-5.392c-2.375-2.625-12.938-17.5-12.938-17.5l4.551-18.792
	C79.551,154.542,73.946,152.827,72.563,152.365z"/>
<path fill="#7C664E" stroke="#313131" stroke-linejoin="round" stroke-miterlimit="10" d="M133.988,152.056l5.51,21.527
	l-16.765,21.642c0,0-2.173-0.204-4.048-5.579c2.375-2.625,12.688-17.313,12.688-17.313l-3.748-17.438
	C127.625,154.896,132.402,152.698,133.988,152.056z"/>
<path fill="#FFFFFF" stroke="#313131" stroke-linecap="round" stroke-linejoin="round" stroke-miterlimit="10" d="M70.5,146.458
	c0,0,6.935,2.694,11.905,3.868c0.147,1.048,0.366,4.945,0.366,4.945s-8.229-1.417-13.771-4.407
	C68.958,149.958,69.833,146.644,70.5,146.458z"/>
<path fill="#FFFFFF" stroke="#313131" stroke-linecap="round" stroke-linejoin="round" stroke-miterlimit="10" d="M136.102,147.125
	c0,0-6.074,2.481-11.044,3.655c-0.147,1.048-0.472,5.432-0.472,5.432s7.475-1.69,13.017-4.68
	C137.644,150.625,136.77,147.311,136.102,147.125z"/>
<path fill="none" stroke="#313131" stroke-linecap="round" stroke-linejoin="round" stroke-miterlimit="10" d="M81.688,197.458
	c0,0,5.938-2.25,7.375-9.875"/>
<path fill="none" stroke="#313131" stroke-linecap="round" stroke-linejoin="round" stroke-miterlimit="10" d="M117.563,186.271
	c0,0,1.125,7.625,6.688,10.438"/>
<path opacity="0.3" fill="#313131" d="M69.208,84.333c0,0,7.916,29.502,35.643,29.917c27.854,0.417,34.773-28.933,34.773-28.933
	s-5.417,32.221-34.25,30.911C98.368,115.868,77.792,115.833,69.208,84.333z"/>
<path opacity="0.3" fill="#313131" d="M98.057,93.083c0,0,2.476,1.481,4.929,0.687c1.874-0.607,2.541,0.882,4.618,0.095
	c1.578-0.598,2.922,0.307,5,0.016C111.807,94.296,102.401,96.771,98.057,93.083z"/>
<polygon opacity="0.3" fill="#313131" points="78.813,156.212 79.219,154.865 72.813,152.896 66.949,174.295 83.64,196.225 
	84.833,195.225 69.208,173.71 74.333,155.458 "/>
<path opacity="0.3" fill="#313131" d="M80.75,192.927l-1.414,7.03c0,0,3.313-2.937,4.74-3.937
	C83.451,194.973,80.75,192.927,80.75,192.927z"/>
<path opacity="0.3" fill="#313131" d="M128.055,156.897c0,0,3.627-0.825,6.564-2.126c-0.292-1.292-0.536-1.271-0.536-1.271
	l-6.201,1.834L128.055,156.897z"/>
<path opacity="0.2" fill="#313131" d="M88.314,155.262c0,0,0.667-4.189,12.292,0.353c4.75,1.625,8.917-1.489,15.417-1.038
	s3.505,7.279-3.589,6.804s-18.97,7.986-22.155,3.167C87.403,160.198,87.768,157.657,88.314,155.262z"/>
</svg>
