<?xml version="1.0" encoding="utf-8"?>
<!-- Generator: Adobe Illustrator 15.0.0, SVG Export Plug-In . SVG Version: 6.00 Build 0)  -->
<!DOCTYPE svg PUBLIC "-//W3C//DTD SVG 1.1//EN" "http://www.w3.org/Graphics/SVG/1.1/DTD/svg11.dtd">
<svg version="1.1" id="woman" xmlns="http://www.w3.org/2000/svg" xmlns:xlink="http://www.w3.org/1999/xlink" x="0px" y="0px"
	 width="211.313px" height="212.833px" viewBox="0 0 211.313 212.833" enable-background="new 0 0 211.313 212.833"
	 xml:space="preserve">
<circle fill="none" stroke="#313131" stroke-miterlimit="10" cx="105.729" cy="106.22" r="105"/>
<circle opacity="0.2" fill="#FFFFFF" cx="104.218" cy="111.908" r="71.017"/>
<path fill="#514541" stroke="#313131" stroke-linejoin="round" stroke-miterlimit="10" d="M84.79,28.153
	c0,0-42.969,17.92-20.969,102.181c14.563-6.658,47.526-17.708,80.526-1.375c5-16.333,22.219-67.488-15.251-98.223
	C120.958,30,84.79,28.153,84.79,28.153z"/>
<path fill="#96EAEA" stroke="#313131" stroke-linecap="round" stroke-linejoin="round" stroke-miterlimit="10" d="M104.137,121.146
	c0,0-19.845,6.854-24.595,10.688s-7,11.583-10.333,19.083c4.833,2.125,8.208,2.875,13.562,4.355
	c-0.257-4.398-0.429-5.473-0.771-8.938c1.188,7.625,2.125,28.336-3.984,61.19c8.484,2.622,20.316,3.696,28.4,3.696
	c8.292,0,15.454-1.156,22.125-2.485c-5.667-38.234-5.004-43.485-3.046-62.276c-0.484,4.685-0.526,3.727-0.899,9.61
	c5.966-2.298,11.881-5.167,11.881-5.167s-5.019-17.985-11.436-21.944C117.417,125.777,111.422,121.833,104.137,121.146z"/>
<path fill="#EAC4A7" stroke="#313131" stroke-miterlimit="10" d="M97.506,112.515c0,0,2.788,1.486,2.121,9.653
	c5.164-1.334,6.102,0.869,10.892-0.274c-0.5-6.333,0.903-9.378,0.903-9.378S103.589,114.348,97.506,112.515z"/>
<path fill="#EAC4A7" stroke="#313131" stroke-linejoin="round" stroke-miterlimit="10" d="M72,47.833l-3.511,22.598
	c0,0-10.4-3.657-8.555,3.902c2.329,9.542,6.662,13.417,8.669,9.847c5.022,18.884,16.139,32.331,36.667,32.333
	c28.481,0.003,34.761-30.958,34.761-30.958s0.898,2.236,3.482,0.277c3.408-2.584,9.604-18.625,0.353-16.167
	c-2.126,0.565-4.187,1.979-4.187,1.979l-1.304-25.688C138.375,45.958,107.875-0.292,72,47.833z"/>
<circle fill="#313131" cx="85.992" cy="74.141" r="1.417"/>
<circle fill="#313131" cx="123.659" cy="74.141" r="1.417"/>
<path fill="#EAC4A7" stroke="#313131" stroke-linecap="round" stroke-linejoin="round" stroke-miterlimit="10" d="M65.281,74.177
	c-3.114-0.453-0.421,4.792,0.516,5.823"/>
<path fill="#EAC4A7" stroke="#313131" stroke-linecap="round" stroke-linejoin="round" stroke-miterlimit="10" d="M142.5,74.208
	c2.917-1.042,1.963,4.94,0,7.146"/>
<path fill="none" stroke="#313131" stroke-width="0.5" stroke-linecap="round" stroke-linejoin="round" stroke-miterlimit="10" d="
	M102.518,127.804"/>
<path opacity="0.3" fill="#313131" d="M77.379,71.174c3.542-3,10.167-3.563,14.542-1.063c1.284-1,1.239-2.219,1.239-2.219
	S79.588,62.924,77.379,71.174z"/>
<path opacity="0.3" fill="#313131" d="M99.771,116.514c0,0,0.115,5.528,0.083,5.715s2.335-0.656,5.219-0.188
	c4.289-0.168,4.271,1.221,5.302-0.333c-0.07-1.306,0-5.481,0-5.481S107.291,117.414,99.771,116.514z"/>
<path opacity="0.3" fill="#313131" d="M142.042,81.354c0,0,1.993-1.292,2.306-5.417c-0.146-0.749-0.347-2.021-1.847-1.521
	C142.75,79.125,142.042,81.354,142.042,81.354z"/>
<path opacity="0.3" fill="#313131" d="M66.25,79.865c0,0-2-0.344-2.313-4.469c0.146-0.749,0.219-1.747,1.719-1.247
	C65.406,78.857,66.25,79.865,66.25,79.865z"/>
<path fill="#514541" stroke="#313131" stroke-linejoin="round" stroke-miterlimit="10" d="M77.848,69.862
	c3.542-3,10.167-3.563,14.542-1.063c1.284-1,1.239-2.219,1.239-2.219S80.057,61.612,77.848,69.862z"/>
<path opacity="0.3" fill="#313131" d="M131.549,71.174c-3.542-3-10.167-3.563-14.542-1.063c-1.284-1-1.239-2.219-1.239-2.219
	S129.341,62.924,131.549,71.174z"/>
<path fill="#514541" stroke="#313131" stroke-linejoin="round" stroke-miterlimit="10" d="M131.081,69.862
	c-3.542-3-10.167-3.563-14.542-1.063c-1.284-1-1.239-2.219-1.239-2.219S128.872,61.612,131.081,69.862z"/>
<path fill="none" stroke="#313131" stroke-linecap="round" stroke-linejoin="round" stroke-miterlimit="10" d="M97.516,96.54
	c0,0,2.696,2.063,8.667,1.813c3.604,0,6.313-1.021,6.313-1.021"/>
<path fill="none" stroke="#313131" stroke-linecap="round" stroke-linejoin="round" stroke-miterlimit="10" d="M99.414,100.951
	c0,0,2.542,2.218,4.821,1.401c3-1.074,6.813,1.063,7.813-2.25"/>
<path fill="none" stroke="#313131" stroke-linecap="round" stroke-linejoin="round" stroke-miterlimit="10" d="M110.387,85.317
	c-0.548,1.339-4.074,3.97-8.824,0.642"/>
<polygon opacity="0.3" fill="#313131" points="97.063,123.927 102.219,128.865 105.073,125.521 107.97,128.958 111.72,124.931 
	107.384,121.146 105.073,122.235 102.518,121.146 "/>
<path opacity="0.3" fill="#313131" d="M101.563,86.104c0,0,1.5,3.479,4.167,3.479c2.15,0,4.74-1.892,4.927-4.267
	C110,86.286,106.146,89.958,101.563,86.104z"/>
<path opacity="0.3" fill="#313131" d="M100.212,101.798c0,0,0.845,3.242,5.314,2.805s5.374-1.742,5.311-3.117
	c-1.701,0.396-4.685,0.542-5.311,0.479S103.079,102.884,100.212,101.798z"/>
<path fill="#FFFFFF" stroke="#313131" stroke-linecap="round" stroke-linejoin="round" stroke-miterlimit="10" d="M99.827,119.458
	c0,0,3.973,2.271,5.246,2.583c-0.79,1.25-3.077,6.354-3.077,6.354l-5.473-4.469C96.523,123.927,97.028,119.833,99.827,119.458z"/>
<path fill="#FFFFFF" stroke="#313131" stroke-linecap="round" stroke-linejoin="round" stroke-miterlimit="10" d="M110.507,119.458
	c0,0-3.859,2.229-5.132,2.542c0.79,1.25,2.963,6.396,2.963,6.396l5.414-4.584C113.751,123.812,113.305,119.833,110.507,119.458z"/>
<path fill="#514541" stroke="#313131" stroke-linejoin="round" stroke-miterlimit="10" d="M105.073,22.958
	c0,0-40.986-2.55-36.584,47.473c5.136-6.973,28.093-14.973,54.636-9.723c0.212-5.161,0.677-10.25,0.338-13.875
	c1.037,3.625,1.826,14.083,1.826,14.083s12.002,5.638,14.919,9.917C142.5,61.333,146.708,24.847,105.073,22.958z"/>
<path fill="#EAC4A7" stroke="#313131" stroke-linejoin="round" stroke-miterlimit="10" d="M72.563,152.365l-5.688,22.219
	l16.765,21.642c0,0,2.829-1.548,4.298-5.392c-2.375-2.625-12.938-17.5-12.938-17.5l4.551-18.792
	C79.551,154.542,73.946,152.827,72.563,152.365z"/>
<path fill="#EAC4A7" stroke="#313131" stroke-linejoin="round" stroke-miterlimit="10" d="M133.988,152.056l5.51,21.527
	l-16.765,21.642c0,0-2.173-0.204-4.048-5.579c2.375-2.625,12.688-17.313,12.688-17.313l-3.748-17.438
	C127.625,154.896,132.402,152.698,133.988,152.056z"/>
<path fill="#FFFFFF" stroke="#313131" stroke-linecap="round" stroke-linejoin="round" stroke-miterlimit="10" d="M70.5,146.458
	c0,0,6.935,2.694,11.905,3.868c0.147,1.048,0.366,4.945,0.366,4.945s-8.229-1.417-13.771-4.407
	C68.958,149.958,69.833,146.644,70.5,146.458z"/>
<path fill="#FFFFFF" stroke="#313131" stroke-linecap="round" stroke-linejoin="round" stroke-miterlimit="10" d="M136.102,147.125
	c0,0-6.074,2.481-11.044,3.655c-0.147,1.048-0.472,5.432-0.472,5.432s7.475-1.69,13.017-4.68
	C137.644,150.625,136.77,147.311,136.102,147.125z"/>
<path fill="none" stroke="#313131" stroke-linecap="round" stroke-linejoin="round" stroke-miterlimit="10" d="M81.688,197.458
	c0,0,5.938-2.25,7.375-9.875"/>
<path fill="none" stroke="#313131" stroke-linecap="round" stroke-linejoin="round" stroke-miterlimit="10" d="M117.563,186.271
	c0,0,1.125,7.625,6.688,10.438"/>
</svg>
